<?xml version="1.0" encoding="UTF-8"?><svg id="_이어_2" xmlns="http://www.w3.org/2000/svg" viewBox="0 0 1041.28 637.87"><defs><style>.cls-1{fill:#2f2e41;}.cls-2,.cls-3,.cls-4{fill:#fff;}.cls-5{fill:#e7c4c3;}.cls-6{fill:#eff0f4;}.cls-7{fill:#ff7f8e;}.cls-8{fill:#3f3d56;}.cls-9{fill:#fbbebe;}.cls-10{fill:#121c72;}.cls-11{fill:#94cc79;}.cls-12{fill:#ffe09c;}.cls-13{fill:#dadae5;}.cls-3,.cls-14,.cls-15,.cls-4{isolation:isolate;}.cls-3,.cls-16,.cls-15{opacity:.1;}.cls-17{fill:#cccad6;}.cls-14{opacity:.03;}.cls-18{fill:#605d82;}.cls-19{fill:#e8e8f0;}.cls-20{fill:none;}.cls-21{fill:#a0616a;}.cls-22{fill:#f2f2f2;}.cls-4{opacity:.2;}</style></defs><g id="_이어_1-2"><path class="cls-22" d="M961.47,521.9c-1.16,2.5-2.32,4.97-3.47,7.4-1.8,3.78-3.58,7.49-5.33,11.12-.78,1.61-1.56,3.19-2.32,4.77-8.6,17.57-16.63,33.11-23.45,45.89-12.6,23.6-37.06,38.45-63.81,38.73l-151.65,1.65h-1.6l-13,.14-11.12,.12-34.07,.39h-1.38l-17.36,.19h-.53l-107,1.16-95.51,1-11.11,.12-69,.75h-.11l-44.75,.48h-.48l-141.5,1.53-42.33,.46c-3.6,.04-7.21-.14-10.79-.54h0c-1.22-.14-2.44-.3-3.65-.49-19.74-3.05-37.84-12.77-51.29-27.54-18.21-20.12-31.46-43.42-40.36-68.81-1.29-3.66-2.49-7.37-3.6-11.12-30.81-104.19,6.75-238.55,74.35-328.44,2.83-3.76,5.71-7.43,8.64-11l.07-.08c20.79-25.52,44.1-46.84,68.93-62,44-26.91,92.75-34.49,140.7-11.9,40.57,19.12,78.45,28.11,115.17,30.55,3.71,.24,7.42,.42,11.11,.53,84.23,2.65,163.17-27.7,255.87-47.29,3.69-.78,7.39-1.55,11.12-2.28,66.13-13.16,139.49-20.1,226.73-5.51,9.06,1.48,18.01,3.62,26.76,6.4,3.85,1.24,7.55,2.57,11.12,4,41.64,16.94,64.35,48.24,74,87.46,.91,3.64,1.7,7.34,2.37,11.11,17.11,94.34-33,228.16-76.37,321.05Z"/><path class="cls-15" d="M497.01,529.3c-.4,3.74-1.03,7.45-1.87,11.12h93.7v-11.12h-91.83Zm-78.25,62.81l11.11-.09v-27.47c-3.81-.17-7.52-.34-11.11-.52v28.08Zm-232.92-62.81v11.12h198.5v-11.12H185.84ZM1035.52,189.75h-74V102.29c-3.57-1.45-7.27-2.79-11.12-4v91.5h-253.54V97.36c-3.73,.73-7.43,1.5-11.12,2.28v90.11h-255.87v-42.82c-3.69-.11-7.4-.29-11.11-.53v43.35H162.89v-62c-24.83,15.16-48.14,36.48-68.93,62h-.07v.08c-2.93,3.6-5.81,7.27-8.64,11h8.64v328.47H10.89c1.11,3.75,2.31,7.46,3.6,11.12H93.88v93.62c3.99,1.22,8.07,2.15,12.2,2.79,1.21,.19,2.43,.35,3.65,.49h0c3.58,.4,7.19,.58,10.79,.54l42.33-.46v-97h255.91v94.21l11.11-.12v-94.07h255.87v91.31l11.12-.12v-91.19h253.49v4.77c.76-1.58,1.54-3.16,2.32-4.77,1.75-3.63,3.53-7.33,5.33-11.12,1.15-2.43,2.31-4.9,3.47-7.4V200.9h76.42c-.67-3.79-1.46-7.51-2.37-11.15ZM162.89,529.3V200.86h255.87v328.44H162.89Zm267,0V200.86h255.85v328.44h-255.85Zm520.48,0h-253.51V200.86h253.49l.02,328.44Z"/><path class="cls-8" d="M834.72,413.44c-13.86-25.59-33.49-47.59-57.35-64.25-1.71-1.18-3.67-1.92-5.73-2.16,2.81-18.48,2.22-38.9-8.21-54.3-24.75-36.54-150.85,1.17-150.85,1.17-88.39-30.64-165,8.25-165,8.25,0,0-97.82-15.32-142.6-3.53-21.12,5.56-26.25,27.1-25.77,48.32h-.07c-3.79,0-7.38,1.72-9.75,4.68-11.91,14.88-47.89,60.71-46.91,69.56,1.18,10.61,40.07,148.49,38.31,215.08l543.29-6s9-134,31.51-207.35c.98-3.15,.66-6.55-.87-9.47Z"/><polygon class="cls-15" points="267.87 421.78 290.26 376.99 309.11 464.2 309.33 504.68 267.87 421.78"/><polygon class="cls-15" points="781.69 421.78 759.3 376.99 733.33 459.68 738.33 506.68 781.69 421.78"/><polygon class="cls-8" points="307.47 461.82 733.37 459.49 738.09 506.63 309.11 505.45 307.47 461.82"/><polygon class="cls-15" points="307.47 461.82 733.37 459.49 738.09 506.63 309.11 505.45 307.47 461.82"/><rect class="cls-3" x="307.33" y="502.04" width="433" height="50.68" rx="10.47" ry="10.47"/><path class="cls-12" d="M651.72,332.5s-1.44-2-3.14-.92c-.81,.53-4.62,5.33-8.36,10.21-1.84,2.39-3.67,4.8-5.12,6.72-1.79,2.36-3,4-3,4l-.72,1.35-4.37,8.17-4.11,7.68-1,3.62,13.88,4.72,15.8-4.31-.68-2.93-.12-.5,.13-6.74,.36-19,.17-8.55v-1l.28-2.52Z"/><path class="cls-5" d="M619.94,379.34s15,5.35,22.69,2.55c0,0,6.65-2.12,9.27-4.17,0,0,2.79-1.46-1-6.22,0,0-9.71,5.95-18.9,3.61l-9.19-2.35-2.87,6.58Z"/><ellipse class="cls-7" cx="634.57" cy="368.98" rx="4.91" ry="4.16" transform="translate(-99.48 371.46) rotate(-30.37)"/><ellipse class="cls-7" cx="644.54" cy="357.02" rx="4.91" ry="4.16" transform="translate(-92.06 374.86) rotate(-30.37)"/><path class="cls-7" d="M650.9,363.57c-1.53-.64-3.27-.5-4.68,.37-2.34,1.37-3.3,4.09-2.13,6.07s4,2.48,6.33,1.11c.16-.1,.32-.2,.47-.31l-.12-.5,.13-6.74Z"/><path class="cls-7" d="M633.93,355.64c-.56-.93-1.49-1.58-2.56-1.78l-4.37,8.17c1.55,.7,3.35,.58,4.8-.32,2.34-1.37,3.29-4.09,2.13-6.07Z"/><path class="cls-7" d="M643.65,343.67c-.73-1.17-2.02-1.89-3.41-1.88-1.84,2.39-3.67,4.8-5.12,6.72l.06,.12c1.16,2,4,2.47,6.34,1.1s3.27-4.08,2.13-6.06Z"/><path class="cls-7" d="M651.43,336.01c-.52,.13-1.01,.33-1.47,.6-2.34,1.37-3.29,4.09-2.13,6.07,.74,1.18,2.04,1.89,3.43,1.88l.17-8.55Z"/><path class="cls-11" d="M628.14,368.8l-.8-1.35c1.2-.36,2.3-.97,3.24-1.8,.06-.06,.11-.13,.16-.19,1-1.26,.79,1.36,.79,1.36,0,0-2.46,2.09-3.39,1.98Z"/><path class="cls-11" d="M639.94,366.71l-.8-1.36c1.2-.36,2.3-.97,3.24-1.8,0-.06,.11-.12,.16-.19,1-1.25,.79,1.36,.79,1.36,0,0-2.46,2.1-3.39,1.99Z"/><path class="cls-11" d="M638.86,361.11l-.8-1.36c1.2-.36,2.3-.97,3.24-1.79,.05-.07,.11-.13,.16-.19,1-1.26,.79,1.35,.79,1.35,0,0-2.46,2.08-3.39,1.99Z"/><path class="cls-11" d="M640.29,351.01l-.8-1.36c1.2-.36,2.3-.97,3.24-1.8,0-.06,.11-.12,.16-.19,1-1.26,.79,1.36,.79,1.36,0,0-2.46,2.09-3.39,1.99Z"/><path class="cls-11" d="M647.06,338.79l-.79-1.36c1.19-.36,2.3-.97,3.23-1.8,.06-.06,.11-.12,.16-.19,1-1.25,.8,1.36,.8,1.36,0,0-2.47,2.09-3.4,1.99Z"/><path class="cls-11" d="M646.3,351.26l-.8-1.36c1.2-.35,2.3-.97,3.24-1.79,0-.07,.11-.13,.16-.19,1-1.26,.79,1.35,.79,1.35,0,0-2.46,2.1-3.39,1.99Z"/><path class="cls-5" d="M617.48,375.11s-1.92,5,2.46,4.2c1.95-2.26,3.28-4.98,3.87-7.91,0,0,9.47-20.75,12.27-22.65,0,0,12.34-16.87,13.67-17.12,0,0,.43-1.64-3.88,1.83s-13.75,16.83-13.75,16.83l-9,14.67-2.12,5.85-3.52,4.3Z"/><path class="cls-4" d="M617.48,375.11s-1.92,5,2.46,4.2c1.95-2.26,3.28-4.98,3.87-7.91,0,0,9.47-20.75,12.27-22.65,0,0,12.34-16.87,13.67-17.12,0,0,.43-1.64-3.88,1.83s-13.75,16.83-13.75,16.83l-9,14.67-2.12,5.85-3.52,4.3Z"/><path class="cls-9" d="M468.73,476.68c1.65,5.42,3.68,10.72,6.08,15.86,6.89-1.44,13.66-3.37,20.27-5.78,.21-.07-3.79-5.3-4.21-5.73-1.63-1.8-3.57-3.29-5.73-4.4-2.11-.92-4.71-.22-7-.1-3.12,.16-6.26,.21-9.41,.15Z"/><path class="cls-1" d="M485.18,484.89c-3.44-1.08-5.54-4.55-6.94-7.89s-2.53-7-5.19-9.44c-1.03,.16-1.91,.82-2.34,1.76-.42,.94-.88,1.85-1.39,2.74-1.1,1.6-3,2.38-4.45,3.74s-2.26,3.43-3.77,4.8c-1.9,1.72-4.58,2.15-7.07,2.72-3.86,.88-7.58,2.25-11.08,4.1-1.29,.78-2.66,1.39-4.1,1.84-1.58,.31-3.2,.36-4.8,.16l-11-.78c-.98-.13-1.97-.09-2.94,.12-2.29,.83-3.72,3.11-3.5,5.53,.29,2.37,1.55,4.52,3.48,5.93,1.92,1.37,4.04,2.43,6.28,3.17,9.6,3.63,19.48,6.45,29.54,8.44v2.18c7,3.45,14.69,5.24,22.49,5.24,.58,.04,1.15-.06,1.68-.29,.72-.52,1.23-1.29,1.42-2.16,2.65-7.75,4.19-15.82,4.59-24,.2-2.07,.04-4.16-.47-6.17-.6-2,1.46-1.15-.45-1.93"/><path class="cls-1" d="M696.5,443.35c-32.67,2-65-7.61-97.66-8.63-4.07-.26-8.15,0-12.15,.78-4.2,.94-8.12,2.84-12,4.66-17.55,8.16-35.69,14.92-53.82,21.67l-20.82,7.76c-4.16,1.55-8.47,3.12-12.9,2.85-2-.12-4.43-.42-5.54,1.23-3.39,5-1.79,12.39,.45,18,.72,1.82,2,3.8,3.9,4,1.37,.14,2.65-.65,4-1,3.79-1,7.57,1.54,11.47,1.95,4.82,.51,9.29-2.23,13.84-3.91,7.54-2.79,15.79-2.7,23.72-4,13.3-2.22,25.62-8.39,37.14-15.42,4.38-2.68,8.82-5.55,13.86-6.53,5.79-1.13,11.74,.36,17.43,2,13.54,3.83,26.87,8.37,39.94,13.6,6.88,2.76,13.72,5.71,20.88,7.62,15.49,4.07,31.87,3.12,46.78-2.73,5.22-2.07,10.91-5.72,11.21-11.36,.17-3.22-2.33-6-4-8.8-1.06-1.77-2.13-3.53-3.3-5.23-5.67-8.26-12.51-19.1-22.43-18.51Z"/><path class="cls-15" d="M696.5,443.35c-32.67,2-65-7.61-97.66-8.63-4.07-.26-8.15,0-12.15,.78-4.2,.94-8.12,2.84-12,4.66-17.55,8.16-35.69,14.92-53.82,21.67l-20.82,7.76c-4.16,1.55-8.47,3.12-12.9,2.85-2-.12-4.43-.42-5.54,1.23-3.39,5-1.79,12.39,.45,18,.72,1.82,2,3.8,3.9,4,1.37,.14,2.65-.65,4-1,3.79-1,7.57,1.54,11.47,1.95,4.82,.51,9.29-2.23,13.84-3.91,7.54-2.79,15.79-2.7,23.72-4,13.3-2.22,25.62-8.39,37.14-15.42,4.38-2.68,8.82-5.55,13.86-6.53,5.79-1.13,11.74,.36,17.43,2,13.54,3.83,26.87,8.37,39.94,13.6,6.88,2.76,13.72,5.71,20.88,7.62,15.49,4.07,31.87,3.12,46.78-2.73,5.22-2.07,10.91-5.72,11.21-11.36,.17-3.22-2.33-6-4-8.8-1.06-1.77-2.13-3.53-3.3-5.23-5.67-8.26-12.51-19.1-22.43-18.51Z"/><path class="cls-9" d="M531.45,478.27c5.11,1.74,10.27,3.34,15.48,4.81,2.91-4.78,8.36-8.11,9.6-13.57,.2-.47-.01-1.02-.49-1.22-.03-.01-.07-.03-.1-.04-3.72-2.06-7.86-3.28-12.11-3.55-3.36-.21-4.89,3.29-6.42,5.76-.61,.99-4.59,8.28-5.96,7.81Z"/><path class="cls-1" d="M538.65,474.78c-3.09-.52-5.81-2.31-7.52-4.94-.72-1.26-1.49-3-2.93-2.87s-2,1.69-2.26,3c-.97,4.96-2.38,9.82-4.21,14.53-1.84,4.72-4.96,8.83-9,11.88-1.9,1.31-4,2.3-5.86,3.68-1.67,1.23-3.12,2.79-5,3.74-1.23,.57-2.5,1.04-3.8,1.42-1.91,.67-3.73,1.56-5.44,2.65-1.5,.87-2.77,2.08-3.7,3.54-.96,1.5-1.07,3.39-.31,5,.8,1.31,2.12,2.21,3.63,2.48,1.49,.26,3.01,.3,4.51,.12,5.95-.44,11.9-1,17.85-1.5,2.51-.15,5.01-.49,7.48-1,1.31-.32,2.58-.73,3.88-1.07,2.23-.57,4.5-.91,6.8-1,.67-.05,1.35,0,2,.18,1.38,.45,2.35,1.82,3.78,2.1,.91,.09,1.83-.04,2.69-.36,4.28-1.17,8.79-1.14,13.22-1.38,2-.1,4.24-.47,5.14-2.22,1.12-2.18-.74-4.62-1.47-7-.37-1.5-.58-3.03-.62-4.57-.34-3.8-1.45-7.5-3.28-10.85-1.51-2.78-3.58-5.86-2.52-8.85,.36-1,1.08-2,1-3-.34-4.79-11.35-3.14-14.06-3.71Z"/><path class="cls-9" d="M647.51,390.94c-5.78-2.55-10.41-7.16-13-12.93-.55-1.24-1-2.53-1.52-3.78-1.72-4.16-4.38-7.86-7.78-10.81-.74-.81-1.79-1.25-2.89-1.22-1.06,.32-1.87,1.19-2.12,2.28-.3,1.14-.37,2.32-.22,3.49,.29,2.75,.77,5.47,1.42,8.16l1.58,7.21c.19,1.11,.53,2.19,1,3.22,.68,1.22,1.58,2.29,2.65,3.18,1.45,1.34,2.92,2.63,4.41,3.89,2.08,1.99,4.78,3.19,7.65,3.4,6.48,1.2,13.08,2.94,18.56,7.17-.07,0,0-4.84-.12-5.39-.25-1.45-.45-2.89-1.39-3.87-2.15-2.2-5.64-2.83-8.23-4Z"/><path class="cls-15" d="M647.51,390.94c-5.78-2.55-10.41-7.16-13-12.93-.55-1.24-1-2.53-1.52-3.78-1.72-4.16-4.38-7.86-7.78-10.81-.74-.81-1.79-1.25-2.89-1.22-1.06,.32-1.87,1.19-2.12,2.28-.3,1.14-.37,2.32-.22,3.49,.29,2.75,.77,5.47,1.42,8.16l1.58,7.21c.19,1.11,.53,2.19,1,3.22,.68,1.22,1.58,2.29,2.65,3.18,1.45,1.34,2.92,2.63,4.41,3.89,2.08,1.99,4.78,3.19,7.65,3.4,6.48,1.2,13.08,2.94,18.56,7.17-.07,0,0-4.84-.12-5.39-.25-1.45-.45-2.89-1.39-3.87-2.15-2.2-5.64-2.83-8.23-4Z"/><ellipse class="cls-1" cx="714.04" cy="327.74" rx="7.95" ry="7.99"/><path class="cls-1" d="M709.12,322.91c-2.15-.24-4.55-.41-6.28,.91-.92,.81-1.65,1.8-2.15,2.92-1.78,3.06-3.17,6.33-4.13,9.73-.71,2.92-.83,6-1.71,8.84-1.63,5.32-5.8,9.81-6.28,15.36-.21,2.48,.21,5.39-1.61,7.09-.44,.37-.92,.71-1.42,1-1.26,.84-2.32,1.94-3.13,3.22-.55,1.15-1.3,2.19-2.22,3.07-1.62,1.2-4.3,1.07-5.1,2.93s1.26,4,.78,6c-.39,1.64-2.22,2.39-3.48,3.51-1.62,1.43-2.36,3.58-3,5.64-5.38,1.02-10.93-.37-15.2-3.79,2.21,5.46,2.26,11.49,2.36,17.39,0,1.91,0,4.06-1.4,5.39,6.33,.14,12.5,1.85,18.67,3.25,2.7,.61,5.63,1.14,8.14,0,1.42-.76,2.68-1.78,3.73-3,3.36-3.41,6.88-7.12,7.7-11.85,.46-2.64,0-5.36,.14-8,.31-3.32,.98-6.59,2-9.76,1.78-6.58,2.97-13.29,3.57-20.08,.36-4.18,4-7.55,5.88-11.3,3.6-7.06,7.27-14.42,7.54-22.35,.13-2.62-.77-5.83-3.4-6.12Z"/><path class="cls-15" d="M709.12,322.91c-2.15-.24-4.55-.41-6.28,.91-.92,.81-1.65,1.8-2.15,2.92-1.78,3.06-3.17,6.33-4.13,9.73-.71,2.92-.83,6-1.71,8.84-1.63,5.32-5.8,9.81-6.28,15.36-.21,2.48,.21,5.39-1.61,7.09-.44,.37-.92,.71-1.42,1-1.26,.84-2.32,1.94-3.13,3.22-.55,1.15-1.3,2.19-2.22,3.07-1.62,1.2-4.3,1.07-5.1,2.93s1.26,4,.78,6c-.39,1.64-2.22,2.39-3.48,3.51-1.62,1.43-2.36,3.58-3,5.64-5.38,1.02-10.93-.37-15.2-3.79,2.21,5.46,2.26,11.49,2.36,17.39,0,1.91,0,4.06-1.4,5.39,6.33,.14,12.5,1.85,18.67,3.25,2.7,.61,5.63,1.14,8.14,0,1.42-.76,2.68-1.78,3.73-3,3.36-3.41,6.88-7.12,7.7-11.85,.46-2.64,0-5.36,.14-8,.31-3.32,.98-6.59,2-9.76,1.78-6.58,2.97-13.29,3.57-20.08,.36-4.18,4-7.55,5.88-11.3,3.6-7.06,7.27-14.42,7.54-22.35,.13-2.62-.77-5.83-3.4-6.12Z"/><path class="cls-1" d="M701.65,450.23c-6.8-3.24-11.78-9.27-17.28-14.44-10.5-9.86-23.35-16.84-34.39-26.09-7.32-6.12-13.86-13.26-21.9-18.39-7.08-4.5-15.09-7.3-23.43-8.2-.96-.17-1.94-.12-2.87,.14-1.05,.47-1.97,1.19-2.67,2.11-3.56,4.02-6.73,8.37-9.46,13-14,23.75-33.88,43.75-50.35,65.82-1.08,1.09-1.16,2.81-.2,4l3.35,6.56c1.87,3.68,4.88,8,8.92,7.23,1.85-.34,3.32-1.7,4.68-3l15-14.37,15.77-15.08c9.24-8.83,18.63-17.87,24.66-29.16,4.7,8.16,13.06,13.5,18.79,21,2.18,2.84,4,6,5.9,9,3.12,4.82,6.67,9.35,10.21,13.87l18.09,23.09c2.46,3.14,5,6.36,8.37,8.49,4.29,2.71,9.5,3.43,14.54,3.88,6.8,.61,13.62,.85,20.44,.74,5.2-.09,10.56-.43,15.23-2.74s8.5-7,8.26-12.28c-.29-2.71-1.18-5.33-2.61-7.65-6.42-11.9-14.87-21.75-27.05-27.53Z"/><ellipse class="cls-19" cx="718.93" cy="333.27" rx="6.11" ry="6.15"/><path class="cls-9" d="M717.58,328.65c1.37,2.74,1.61,5.91,.67,8.82-.95,2.87-2.27,5.61-3.93,8.14-1.43,2.61-3.14,5.05-5.11,7.29,9.43,.46,18.58-3.24,26.9-7.73,6.7-3.6,13.38-8.06,17-14.8-2.15,.52-4.42,.1-6.25-1.15-1.8-1.25-3.4-2.76-4.78-4.46l-4.74-5.33c-1.11-1.16-2.09-2.44-2.91-3.82-1.03-1.89-1.46-4.04-1.25-6.18-1.88,1.97-3.99,3.72-6.27,5.2-3.38,2.2-7.11,3.8-10.5,6-1.2,.77-3.88,2-3.19,3.59s3.43,2.75,4.36,4.43Z"/><path class="cls-15" d="M717.58,328.65c1.37,2.74,1.61,5.91,.67,8.82-.95,2.87-2.27,5.61-3.93,8.14-1.43,2.61-3.14,5.05-5.11,7.29,9.43,.46,18.58-3.24,26.9-7.73,6.7-3.6,13.38-8.06,17-14.8-2.15,.52-4.42,.1-6.25-1.15-1.8-1.25-3.4-2.76-4.78-4.46l-4.74-5.33c-1.11-1.16-2.09-2.44-2.91-3.82-1.03-1.89-1.46-4.04-1.25-6.18-1.88,1.97-3.99,3.72-6.27,5.2-3.38,2.2-7.11,3.8-10.5,6-1.2,.77-3.88,2-3.19,3.59s3.43,2.75,4.36,4.43Z"/><path class="cls-10" d="M717.71,329.58c-1.77,3-2.15,6.5,0,9.22,.27,.34,1.26,2.44,1.69,2.46,.42-.04,.8-.24,1.08-.55,2.29-2.09,4-4.76,6-7.13s4.55-4.52,7.61-5c3.69-.57,7.26,1.38,10.49,3.27,1.4,.68,2.63,1.69,3.58,2.93,.68,1.23,1.08,2.6,1.18,4,1.11,8.41,1.09,16.93,1.06,25.41,0,6.14,0,12.31-1.2,18.33-.6,3.12-1.5,6.17-1.93,9.31-.31,2.77-.43,5.56-.37,8.35v11.68c-.08,2.14,.07,4.29,.45,6.4,.55,2.56,1.76,4.92,2.57,7.41,.84,2.86,1.41,5.79,1.71,8.76l1.6,12.09c.5,3.81,.87,8-1.43,11-1,1.38-2.41,2.49-3.46,3.87-4,5.14-2.69,12.49-4.34,18.78-1.3,4.6-3.97,8.7-7.66,11.75-2.83,2.4-6.48,4.28-10.11,3.61-4.91-.91-7.86-6-9.2-10.87s-1.82-10.1-4.72-14.18c-2.37-3.34-6-5.44-9.36-7.82s-6.56-5.45-7.28-9.49c-.32-1.76-.12-3.57-.31-5.35-.53-4.6-3.53-8.53-7.82-10.27-2.51-1-5.61-1.33-7-3.63,3.66-2.06,6.08-5.87,7.36-9.88s1.54-8.27,1.79-12.47l.84-14.05c.37-6.28,.54-12.5,3.31-18.14,1.23-2.53,2.77-4.89,4.06-7.38,1.7-3.5,3.16-7.12,4.35-10.83,2-5.76,4-11.52,5.8-17.35,.72-2.82,1.78-5.53,3.18-8.08,1.42-2.44,3.64-5.63,6.48-6.16Z"/><path class="cls-1" d="M686.51,420.86l3.72,.13,.79-5.61c.1-1.13,.36-2.23,.78-3.28,.62-1.11,1.33-2.15,2.14-3.13,3.66-5.17,3.39-12,4.3-18.31,1.21-8.38,4.71-16.22,8.17-23.93l7.24-16.09c1.43-2.73,2.12-5.8,2-8.88,.07-2.49,.8-11.53,.87-14,0-.92-2-.41-2.45-1.23-.9-1.79-2.14,3.06-3.83,4.12s-2.63,3-3.34,4.86c-1.56,4.05-2.51,8.31-4,12.4s-3.47,8.11-6.74,11c-1.48,1.3-3.18,2.32-4.58,3.71-4.49,4.44-4.93,11.45-5.09,17.78-.08,3.71-.84,40.46,.02,40.46Z"/><path class="cls-1" d="M740.03,322.87c-3.61,1.42-5.59,5.34-6.6,9.1s-1.43,7.78-3.37,11.15c-4.54,7.89-16.1,10.19-19.29,18.72-1,2.79-1,5.85-1.29,8.82-.58,6.11-2.59,12-3.18,18.12-.31,4.75-.2,9.51,.33,14.24l4,48.19c.59,7,.57,14.43-1.21,21.19,4.09,.79,8.35-.27,12.14-2s7.26-4.11,10.91-6.12c6.28-3.47,13.21-5.92,18.71-10.54,1-.78,1.85-1.72,2.52-2.79,1.1-1.9,1.2-4.21,1.72-6.35,.47-1.71,1.08-3.38,1.81-5,2.01-4.86,3.77-9.82,5.26-14.86,1.02-3.34,1.83-6.75,2.41-10.2,.44-2.74,.68-5.52,.92-8.29,.29-4.34,1.15-8.62,2.56-12.74,3.51-9.81,5.51-20.1,5.91-30.52,.11-1.5,0-3.02-.31-4.49-.62-1.79-1.44-3.5-2.44-5.1-1.68-3.16-2.69-6.64-4.27-9.86-3.58-7.25-9.91-12.76-16.53-17.37-3.22-2.25-7.02-4.74-10.71-3.3Z"/><path class="cls-9" d="M655.56,401.49c-2.87-1.51-5.47-3.48-7.69-5.85-1-1.18-1.84-2.51-2.87-3.67-2.6-2.77-5.97-4.7-9.68-5.52-3.68-.81-7.44-1.17-11.21-1.09-2.52-.16-5.05,.14-7.46,.9-2.45,.8-4.32,2.81-4.94,5.31-.55,3,1.41,5.91,3.76,7.84,2.19,1.79,4.76,3.04,7.52,3.65,2.25,.39,4.51,.65,6.79,.79,13.38,1.4,25.32,8.68,37,15.31,10.3,5.83,20.8,11.28,31.49,16.34,.42-3.21,.6-6.44,.53-9.67-.06-2.41-.18-6.09-2.46-7.51-2.65-1.65-7-2-10-3-6.89-2.26-13.62-4.98-20.15-8.15-3.61-1.77-7.15-3.66-10.63-5.68Z"/><ellipse class="cls-9" cx="714.67" cy="302.49" rx="23.97" ry="23.84" transform="translate(240.4 916.76) rotate(-75.27)"/><path class="cls-1" d="M746.85,350.05c-2.13,2.48-3.2,5.68-4.63,8.62-2.94,6.06-7.56,11.26-9.87,17.6-2.44,6.68-2.36,14.62-7.14,19.87-.83,.91-1.83,1.79-2.07,3-.03,.73-.12,1.47-.25,2.19-.68,1.9-3.8,2-4.38,3.94-.17,.57-.08,1.19-.29,1.75-.48,1.25-2.13,1.44-3.24,2.2-2.32,1.57-1.85,5.21-3.5,7.48-1.48,1.73-3.77,2.53-6,2.08-2.17-.44-4.25-1.22-6.18-2.31-.68-.38-1.44-.62-2.22-.69-.92,.03-1.82,.33-2.57,.87-4.4,2.8-6.47,8.35-6.44,13.59s1.83,10.28,3.67,15.18c.25,.83,.67,1.59,1.22,2.26,1.46,1.54,4,1.3,5.94,.44s3.7-2.21,5.78-2.59c3.69-.67,7.3,1.87,11,1.66,2.74-.16,5.17-1.75,7.44-3.29,3.64-2.46,7.34-5,10-8.48,1.64-2.14,2.84-4.57,4.27-6.86,1.83-2.79,3.83-5.46,6-8l13.74-16.82c1.38-1.59,2.62-3.3,3.7-5.11,1.25-2.44,2.22-5.02,2.88-7.68,1.31-4.49,2.63-9,2.85-13.69,.08-3.85-.26-7.69-1-11.47-.47-3.76-1.48-7.44-3-10.92-2.83-6.24-10.1-11.37-15.71-4.82Z"/><path class="cls-8" d="M788.41,339.35c2.23-8.33,.33-17.22-5.12-23.9,3.65-15.57-4.3-31.16-18.3-36.93,.5-14.6-8.75-28-23-31.76-14.81-3.89-30,3.93-36.39,17.83-9-4.67-18.52-4.17-21.66,1.32-3.28,5.74,1.65,14.77,11,20.16,2.95,1.72,6.17,2.92,9.53,3.53,2.92,8.25,9.18,14.88,17.25,18.26-.5,12.04,5.85,23.33,16.4,29.15,.57,4.1,2.08,8.02,4.43,11.43-.28,.72-.51,1.45-.7,2.19-2.94,11.15,3.42,22.49,14.19,25.32s21.89-3.91,24.82-15.06c.79-2.97,.92-6.08,.4-9.11,3.46-3.43,5.93-7.72,7.15-12.43Z"/><path class="cls-15" d="M690.11,268.81c3.14-5.49,12.65-6,21.66-1.32,6.37-13.9,21.58-21.73,36.39-17.83,.67,.17,1.33,.38,2,.6-2.53-1.56-5.28-2.74-8.16-3.5-14.81-3.89-30,3.93-36.39,17.83-9-4.67-18.52-4.17-21.66,1.32-3.28,5.74,1.65,14.77,11,20.16,1.75,1.01,3.6,1.85,5.52,2.5-8.94-5.46-13.56-14.16-10.36-19.76Z"/><path class="cls-15" d="M748.03,353.53c.19-.74,.42-1.47,.7-2.19-2.35-3.42-3.86-7.33-4.43-11.44-10.55-5.82-16.9-17.1-16.4-29.14-8.07-3.38-14.33-10.01-17.25-18.26-1.96-.35-3.87-.91-5.71-1.67,3.09,7.69,9.13,13.81,16.77,17-.5,12.04,5.85,23.33,16.4,29.15,.57,4.1,2.08,8.02,4.43,11.43-.28,.72-.51,1.45-.7,2.19-2.93,11.11,3.38,22.41,14.09,25.29-7.03-5.08-10.18-13.99-7.9-22.36Z"/><ellipse class="cls-9" cx="721.98" cy="306.83" rx="3.67" ry="4.91" transform="translate(-38.54 499.2) rotate(-37.22)"/><circle class="cls-8" cx="431.79" cy="83.41" r="16.29"/><ellipse class="cls-8" cx="467.14" cy="119.56" rx="45.69" ry="59.2"/><path class="cls-15" d="M467.14,160.88c-22.89,0-41.85-21.81-45.18-50.26-.35,2.97-.52,5.95-.52,8.94,0,32.69,20.46,59.2,45.7,59.2s45.69-26.51,45.69-59.2c0-2.99-.17-5.97-.52-8.94-3.32,28.49-22.28,50.26-45.17,50.26Z"/><path class="cls-8" d="M564.5,292.94c-1,4-5.21,7.26-9.89,9.51-9.86,4.75-22,6.16-33.79,6.64-3,.18-6.01,.13-9-.17-6.17-.73-11.89-3.36-15.46-7.11-.51-.41-.86-.98-1-1.62,.05-.77,.41-1.5,1-2,6.29-6.86,16.77-11.08,27.29-14.08,8-2.31,21.94-8.29,30.67-7.48,8.48,.73,11.42,11.21,10.18,16.31Z"/><path class="cls-15" d="M564.5,292.94c-1,4-5.21,7.26-9.89,9.51-9.86,4.75-22,6.16-33.79,6.64-3,.18-6.01,.13-9-.17-6.17-.73-11.89-3.36-15.46-7.11-.51-.41-.86-.98-1-1.62,.05-.77,.41-1.5,1-2,6.29-6.86,16.77-11.08,27.29-14.08,8-2.31,21.94-8.29,30.67-7.48,8.48,.73,11.42,11.21,10.18,16.31Z"/><path class="cls-18" d="M439.24,262.8c-3,5.88-3.54,12.72-1.51,19,2.07,6.25,5.95,11.74,11.15,15.78,12.77,10.25,30.29,11.66,46.62,11.53,14.32-.13,28.62-1.11,42.82-2.94,4.73-.61,9.51-1.33,13.89-3.22,5.33-2.31,10-6.54,11.91-12s.56-12.22-4-15.88c-4-3.22-9.43-3.66-14.52-4l-29.15-1.75c2.88-2.92,6.71-4.57,10.22-6.68,4.65-2.82,7.74-7.54,11.13-11.79,5-6.36,11-11.92,17-17.45,1,5.44,4.39,9.91,8.44,13.67s8.72,6.78,12.94,10.35c10.2,8.66,17.54,20.42,28.27,28.42,7.38-1.94,14.28-5.39,20.27-10.12l-4.17-7.55c-.34-.79-.88-1.48-1.57-2-1.19-.72-2.71-.35-4.08-.55-3.66-.55-5.26-4.78-6.7-8.19-3.94-9.38-11.5-16.65-18-24.51-4.74-5.79-8.94-12.01-12.55-18.57-2.17-3.91-4.15-8-7.1-11.37s-7.06-6-11.54-6c-4,0-7.6,2-11,4-10.36,6.15-20.32,12.94-29.84,20.33-5,3.86-9.93,7.95-15.77,10.32-2.46,1-5,1.68-7.41,2.89-4.13,2.13-7.27,5.73-10.65,8.92-12.04,11.39-28.53,18.77-45.1,19.36Z"/><path class="cls-9" d="M500.2,181.7c-.13,3.49-.87,6.92-2.19,10.15-1.35,3.24-3.99,5.78-7.28,7-2.32,.62-4.75,.7-7.1,.23-2.06-.22-4.04-.91-5.79-2-2.73-1.88-4.09-5.23-4.59-8.51s-.27-6.63-.59-9.93c-.31-2.67-.82-5.31-1.52-7.9-.21-.86-.43-1.72-.65-2.58s-.41-1.72-.6-2.58-.34-1.61-.48-2.43-.22-1.38-.29-2.07c-.06-2.06-.4-4.11-1-6.08-.57-1.28-1.28-2.49-2.13-3.6-.36-.52-.71-1-1-1.57-.93-1.39-1.36-3.06-1.23-4.73,.04-.26,.1-.51,.19-.76,.03-.1,.07-.19,.11-.28,.72-.2,1.3-.74,1.55-1.45,.14-.75,.07-1.53-.19-2.25-.29-1.01-.7-1.97-1.21-2.89-.33-.6-1.46-1.69-1.47-2.38,0-1.39,2.7-2.51,3.8-3.06,3.36-1.69,7.11-2.44,10.86-2.2,2.4,.16,5,.9,6.33,2.92,1.2,1.81,1,4.16,1.55,6.27,.05,.31,.17,.6,.37,.84,.26,.24,.59,.39,.94,.43,.59,.12,1.19,.14,1.78,.07h0c.16,0,.32-.03,.47-.07,.92-.17,1.8-.55,2.56-1.1,.5-.14,1-.24,1.49-.33h.06c2,6.28,2.25,13,3.88,19.42,.81,3.18,2,6.32,2.13,9.6v.43c0,1.06-.06,2.12,0,3.17,.02,.47,.07,.94,.16,1.4,.18,.74,.4,1.48,.66,2.2h0c.07,.23,.14,.46,.2,.7,.05,.17,.09,.34,.12,.51h0c.29,1.79,.33,3.61,.1,5.41Z"/><circle class="cls-9" cx="472.32" cy="117.18" r="23.44"/><path class="cls-9" d="M621.15,244.9c-.68-6.39-2.96-12.51-6.61-17.79l1.83,10.85c-1.55,.44-3.22-.07-4.25-1.31-.99-1.23-1.74-2.64-2.23-4.14-2.66-6.61-6.15-12.86-10.37-18.6-14.92-1.25-29.68-7.43-42.8-14.65s-25.41-15.85-38.37-23.36c-2.25-1.36-4.59-2.55-7-3.58-4.05-1.62-8.6-2.46-12.44-4.37l-.77-.41c-.87-.47-1.69-1.02-2.46-1.64-.41-.34-.8-.7-1.17-1.09-1.92-2.23-3.44-4.77-4.5-7.51-2.06-4.56-2.8-10.07-4.85-14.63,.95-.88,2.01-1.63,3.15-2.23h0l.5-.25c.81-.38,1.66-.69,2.53-.92,.5-.14,1-.24,1.49-.33h.06c2.32-.37,4.7-.19,6.94,.55,3.26,1.11,6,3.31,8.76,5.4,4.35,3.29,8.87,6.39,12.82,10.16,2.26,2.17,4.33,4.55,6.76,6.52,2.03,1.56,4.16,2.98,6.39,4.24l39.54,23.55c4.46,2.65,8.93,5.31,13.29,8.13,6.63,4.27,13,8.9,19.4,13.53l11.29,8.18c1.24,.8,2.32,1.82,3.2,3,.77,1.33,1.25,2.8,1.41,4.33,.94,6.16,.41,12.45-1.54,18.37Z"/><path class="cls-10" d="M506.02,199.33c-1.59,7.09-8.75,11.38-12.5,17.61-4.66,7.73-2.76,16.72-1,25.58l-9.59,8.26c-1.76,1.51-3.53,3-5.42,4.37-2.77,1.86-5.67,3.53-8.67,5l-8.48,4.36c-2.63,1.48-5.42,2.66-8.31,3.52-5.58,1.43-11.5,.43-17-1.22-.65-.17-1.28-.43-1.86-.76-.34-.21-.64-.48-.88-.8-.55-.97-.75-2.11-.56-3.21,.56-9.28,2.83-18.37,5.09-27.39,1.19-5.42,2.8-10.73,4.81-15.9,1.98-4.42,4.27-8.71,6.83-12.82,3-5.07,6-10.18,10-14.53,1.71-1.88,3.62-3.66,4.64-6,1.41-3.22,.86-6.91,1.15-10.41,.22-2.63,.91-5.21,2.06-7.59h0c.61-1.28,1.35-2.5,2.2-3.64,.39,.9,.77,1.8,1.16,2.69l.75,1.76c.33,.75,.65,1.51,1,2.26,.93,2.15,1.86,4.3,2.78,6.45,.99,2.71,2.41,5.25,4.21,7.51,1.91,2.16,4.72,3.73,7.58,3.42,2.72-.45,5.09-2.11,6.46-4.5,1.34-2.37,2.31-4.93,2.87-7.59,.79-3.24,.9-6.61,.32-9.89-1-6.33-3.65-12.79-5.6-18.67-.8-1.96-1.26-4.04-1.36-6.15,0-.24,.02-.48,.07-.71v-.18c.81-.38,1.66-.69,2.53-.92,.5-.14,1-.24,1.49-.33,1.72,9.33,3.44,18.65,5.17,27.94,0,.22,.09,.44,.13,.66,.24,1.34,.49,2.67,.77,4s.52,2.41,.82,3.6h0c.1,.4,.21,.81,.32,1.21h0c.31,1.1,.65,2.18,1,3.26,2.44,6.53,6.51,13.04,5.02,19.75Z"/><path class="cls-1" d="M601.16,299c-.09,1.38,.18,2.75,.77,4,1.46,2.68,5,3.29,8,3.54,17.79,1.47,35.7,.92,53.37-1.62,.96-.07,1.89-.36,2.72-.85,2.51-1.76,1-6.05-1.78-7.43s-6-1-9-1.63c-2.99-.76-5.84-1.99-8.44-3.66-6.1-3.51-12.1-7.17-18-11-3.53-2.27-7.7-4.69-11.67-3.34-10.79,3.64-16.05,10.38-15.97,21.99Z"/><path class="cls-9" d="M469.98,165.11h0l-.09,.49-.15,.82c-.49,2.52-1.1,5-1.79,7.53-1.91,6.89-4.46,13.68-7,20.36l-20.41,53.8c-1.72,4.52-3.43,9-5.38,13.46-.65,1.47-1.32,3-2,4.46-2.39,5.37-4.69,10.92-5.45,16.65-.5,3.79-1,7.66-.25,11.41s3,7.42,6.61,8.8c1.74,.68,4.23,1.59,3.75,3.4-.25,1-1.38,1.48-2.4,1.64-2.71,.44-5.47-.36-7.53-2.17-1.9-1.68-3.37-4.31-5.9-4.59-1.75-.19-3.36,.86-5,1.59-6.55,3-14.17,.9-21.05-1.23,.54-2.78,3.34-4.62,6.11-5.17s5.65-.17,8.49-.24c.91,.05,1.81-.19,2.58-.67,.7-.62,1.19-1.44,1.43-2.34,1.82-5.41,3.18-10.96,4.05-16.6,.92-5.9,1.3-11.88,2.6-17.7,1-4.54,2.58-8.94,3.92-13.4,2.6-9.18,4.73-18.48,6.39-27.88,.84-3.9,1.44-7.85,1.8-11.82,.23-3.3,.12-6.62,.44-9.9,.53-4.27,1.42-8.5,2.66-12.62,1.22-4.51,2.43-9,3.65-13.5,1.8-6.66,3.73-13.57,8.29-18.74,3.2-3.68,7.78-5.87,12.66-6.05,.9,0,1.81,.09,2.69,.29l.44,.11c.97,.25,1.89,.63,2.75,1.14,1.41-.9,2.12-.58,3.06,.79,.82,1.46,1.2,3.13,1.11,4.8,.07,4.38-.29,8.77-1.08,13.08Z"/><path class="cls-10" d="M471.52,170.42l-.06,.06-.32,.32-3.19,3.19-1.57-6.58-5.37-22.54c.9,0,1.81,.09,2.69,.29,.04-.26,.1-.51,.19-.76l.25,.87,1.82,6.19,3.45,11.75,.57,1.94h0l1.54,5.27Z"/><rect class="cls-8" x="450.57" y="82.61" width="50.86" height="31.79" rx="12" ry="12"/><circle class="cls-8" cx="504.4" cy="83.41" r="16.29"/><path class="cls-15" d="M504.01,67.11h-.6c8.99,.39,15.96,7.99,15.58,16.97-.36,8.45-7.13,15.21-15.58,15.58h.6c9,0,16.29-7.3,16.29-16.29,0-8.99-7.29-16.29-16.29-16.29v.03Z"/><path class="cls-15" d="M431.79,67.11h.6c-8.99,.39-15.96,7.99-15.58,16.97,.36,8.45,7.13,15.21,15.58,15.58h-.6c-9,0-16.29-7.29-16.29-16.29s7.29-16.29,16.29-16.29h0v.03Z"/><path class="cls-15" d="M501.93,111.21h-41.28c-2.63,0-4.76-2.13-4.77-4.76v3.17c0,2.63,2.14,4.76,4.77,4.77h41.32c2.63,0,4.76-2.14,4.77-4.77v-3.17c-.01,2.64-2.16,4.77-4.8,4.76h-.01Z"/><path class="cls-12" d="M641.97,277.96s2.58,.45,3-1.64c.21-1-.5-7.42-1.31-13.84-.39-3.16-.81-6.31-1.15-8.83-.41-3.09-.71-5.22-.71-5.22l-.47-1.56-2.78-9.34-2.62-8.8-1.93-3.46-13.89,6.76-8.64,14.93,2.68,1.69,.47,.3,4.93,5.16,13.82,14.5,6.22,6.53,.73,.76,1.65,2.06Z"/><path class="cls-5" d="M631.05,219.33s-15.22,7.14-18.88,14.9c0,0-3.42,6.53-3.85,10,0,0-1,3.17,5.31,3.95,0,0,2.87-11.65,11.48-16.71l8.62-5.05-2.68-7.09Z"/><ellipse class="cls-7" cx="630.77" cy="236.12" rx="5.19" ry="4.4" transform="translate(239.39 784.25) rotate(-75)"/><ellipse class="cls-7" cx="629.13" cy="254.23" rx="5.17" ry="4.38" transform="translate(221.49 796.7) rotate(-75.08)"/><path class="cls-7" d="M619.55,254.11c1.62-.66,2.82-2.05,3.23-3.75,.74-2.76-.56-5.51-2.9-6.13s-4.83,1.11-5.56,3.87c-.06,.19-.1,.38-.13,.57l.47,.3,4.89,5.14Z"/><path class="cls-7" d="M638.14,247.44c1.11,.28,2.28,.07,3.23-.57l-2.78-9.34c-1.68,.62-2.94,2.05-3.36,3.79-.73,2.79,.57,5.5,2.91,6.12Z"/><path class="cls-7" d="M639.75,263.6c1.42,.34,2.92-.09,3.95-1.12-.39-3.16-.81-6.31-1.15-8.83h-.13c-2.34-.63-4.83,1.11-5.57,3.87s.57,5.46,2.9,6.08Z"/><path class="cls-7" d="M639.59,275.11c.29-.48,.51-1.01,.65-1.55,.74-2.76-.56-5.5-2.9-6.12-1.44-.35-2.96,.08-4,1.14l6.25,6.53Z"/><path class="cls-11" d="M632.72,233.29l1.6,.43c-.63,1.16-1,2.44-1.09,3.75,0,.09,0,.17,0,.26,.21,1.65-1.6-.43-1.6-.43,0,0,.31-3.39,1.09-4.01Z"/><path class="cls-11" d="M625.43,243.61l1.61,.43c-.63,1.15-1.01,2.43-1.09,3.74,0,.09,0,.17,0,.26,.21,1.65-1.6-.43-1.6-.43,0,0,.3-3.39,1.08-4Z"/><path class="cls-11" d="M630.41,247.02l1.6,.42c-.63,1.16-1,2.44-1.09,3.75,0,.09,0,.17,0,.26,.22,1.65-1.6-.43-1.6-.43,0,0,.33-3.39,1.09-4Z"/><path class="cls-11" d="M636.81,255.63l1.61,.42c-.63,1.16-1.01,2.44-1.09,3.75,0,.09,0,.17,0,.26,.21,1.65-1.6-.43-1.6-.43,0,0,.31-3.39,1.08-4Z"/><path class="cls-11" d="M640.8,269.8l1.6,.43c-.63,1.15-1,2.43-1.09,3.74,0,.09,0,.17,0,.26,.22,1.65-1.6-.42-1.6-.42,0,0,.31-3.4,1.09-4.01Z"/><path class="cls-11" d="M632.12,259.89l1.6,.43c-.63,1.17-1,2.46-1.07,3.79,0,.09,0,.17,0,.26,.21,1.65-1.6-.42-1.6-.42,0,0,.3-3.45,1.07-4.06Z"/><path class="cls-5" d="M636,220.65s-2.29-5.19-5-1.32c.23,3.14,1.26,6.17,3,8.8,0,0,8.29,22.55,7.6,26,0,0,3.27,21.78,2.46,23,0,0,.9,1.54,1.54-4.25s-2.17-22.8-2.17-22.8l-4.11-17.68-2.75-6-.57-5.75Z"/><path class="cls-4" d="M636,220.65s-2.29-5.19-5-1.32c.23,3.14,1.26,6.17,3,8.8,0,0,8.29,22.55,7.6,26,0,0,3.27,21.78,2.46,23,0,0,.9,1.54,1.54-4.25s-2.17-22.8-2.17-22.8l-4.11-17.68-2.75-6-.57-5.75Z"/><path class="cls-9" d="M608.5,229.25s4.11,11.84,7.87,8.69l-3-15.47-4.87,6.78Z"/><path class="cls-21" d="M327.4,277.88s36.25,61.07,44.72,69.23c0,0,36.22,37.6,17.81,35-1.35-.19-27.86-22.6-29.41-26.28s-51.67-68.79-51.67-68.79l7.15-6.58,11.4-2.58Z"/><path class="cls-15" d="M327.4,277.88s36.25,61.07,44.72,69.23c0,0,36.22,37.6,17.81,35-1.35-.19-27.86-22.6-29.41-26.28s-51.67-68.79-51.67-68.79l7.15-6.58,11.4-2.58Z"/><path class="cls-1" d="M360.55,477.33s-11.6,14.5-6.76,20.3,28.95,16.89,36.73,16.43c8.22-.48,35.77,1,36.74-11.6,0,0,1.93-5.8-23.2-6.77s-17.41-27.07-17.41-27.07l-26.1,8.71Z"/><path class="cls-18" d="M222.31,354.55s-11.6,39.63,23.2,46.4l37.7-1.93s53.17-10.64,67.68-2.9c0,0,5.8,1,3.86,8.7s2.9,59.94,2.9,59.94v17.4s32.87,0,36.74-3.87c0,0-2.9-15.47,0-28s-4.83-52.21-4.83-52.21l-.77-23.81c-.12-6.01-3.47-11.48-8.77-14.32-1.83-.97-3.86-1.49-5.93-1.51,0,0-65.74-10.63-88.94-8.7s-62.84,4.81-62.84,4.81Z"/><path class="cls-10" d="M287.08,227.9s17.4,20.3,19.33,27.07,23.24,24.14,23.24,24.14c0,0-15.47,11.6-12.57,17.4s-20.3-19.33-20.3-19.33l-27.13-39.61,17.43-9.67Z"/><path class="cls-15" d="M287.08,227.9s17.4,20.3,19.33,27.07,23.24,24.14,23.24,24.14c0,0-15.47,11.6-12.57,17.4s-20.3-19.33-20.3-19.33l-27.13-39.61,17.43-9.67Z"/><path class="cls-21" d="M298.65,204.7s-8.7,28-8.7,38.67-36.74-2.9-35.77-8.7,21.27-27.07,22.24-35.77,22.23,5.8,22.23,5.8Z"/><path class="cls-15" d="M269.65,224.03s-33.84-8.7-38.67,40.61,3.86,55.1-10.64,85.07,98.61,3.87,98.61,3.87c0,0-5.8-6.77-24.17-3.87l-8.7-26.1s-2.9-11.6,13.54-11.6,8.7-33.84,8.7-33.84c0,0-8.7-29-13.54-31.9s-13.5-20.3-25.13-22.24Z"/><path class="cls-10" d="M269.65,222.11s-33.84-8.7-38.67,40.6,3.86,55.11-10.64,85.08,98.61,3.87,98.61,3.87c0,0-5.8-6.77-24.17-3.87l-8.7-26.1s-2.87-11.58,13.57-11.58,8.7-33.84,8.7-33.84c0,0-8.7-29-13.54-31.9s-13.53-20.34-25.16-22.26Z"/><circle class="cls-21" cx="289.98" cy="190.2" r="31.9"/><polygon class="cls-13" points="283.82 353.54 363.99 401.46 438.58 331.96 349.66 300.99 285.67 344.55 283.82 353.54"/><polygon class="cls-20" points="371.66 213.21 347.09 288.63 436.2 317.39 473.65 210.97 371.66 213.21"/><polygon class="cls-13" points="378.43 219.4 353.48 293.6 436.2 317.39 471.51 217.05 378.43 219.4"/><polygon class="cls-14" points="371.77 213.92 378.54 220.11 471.62 217.76 473.76 211.68 371.77 213.92"/><polygon class="cls-14" points="347.2 289.33 371.77 213.92 378.54 220.11 354.22 292.45 347.2 289.33"/><polygon class="cls-6" points="371.66 213.21 378.43 219.4 471.51 217.05 473.65 210.97 371.66 213.21"/><polygon class="cls-6" points="347.09 288.63 371.66 213.21 378.43 219.4 354.11 291.74 347.09 288.63"/><polygon class="cls-14" points="371.66 213.21 382.01 222.89 475.1 220.54 473.65 210.97 371.66 213.21"/><polygon class="cls-14" points="347.09 288.63 371.66 213.21 382.01 222.89 357.69 295.23 347.09 288.63"/><polygon class="cls-14" points="347.25 289.69 349.51 304.04 438.98 335.1 436.37 318.45 347.25 289.69"/><polygon class="cls-14" points="281.11 336.85 347.25 289.69 350.14 304.03 285.17 352.35 281.11 336.85"/><polygon class="cls-6" points="347.09 288.63 349.03 301 438.5 332.06 436.2 317.39 347.09 288.63"/><polygon class="cls-6" points="280.94 335.78 347.09 288.63 349.66 300.99 284.69 349.31 280.94 335.78"/><polygon class="cls-14" points="347.09 288.63 349.03 301 438.5 332.06 436.2 317.39 347.09 288.63"/><polygon class="cls-14" points="280.94 335.78 347.09 288.63 349.66 300.99 284.69 349.31 280.94 335.78"/><polygon class="cls-17" points="280.94 335.78 283.93 353.61 363.88 401.38 361.91 383.03 280.94 335.78"/><path class="cls-12" d="M317.37,332.96s-1.39,2.65,.73,3.87c1,.58,8.23,2,15.49,3.36,3.56,.66,7.13,1.3,10,1.8,3.5,.62,5.92,1,5.92,1h1.84l11.12,.21,10.46,.2,4.43-.91-2.55-17.38-13.24-14.55-2.77,2.34-.47,.4-7.28,3.54-20.54,10-9.24,4.5-1.08,.53-2.82,1.09Z"/><path class="cls-5" d="M384.84,341.35s-2.49-19-9.67-25.66c0,0-5.9-6-9.53-7.64,0,0-3.09-2.19-6.13,4.41,0,0,11.67,7.14,14.19,18.25l2.51,11.11,8.63-.47Z"/><ellipse class="cls-7" cx="365.83" cy="331.39" rx="5" ry="5.9" transform="translate(-110.38 461.29) rotate(-57.43)"/><ellipse class="cls-7" cx="347.59" cy="327.27" rx="5" ry="5.9" transform="translate(-115.33 444.02) rotate(-57.43)"/><path class="cls-7" d="M351.05,316.85c.16,2,1.28,3.79,3,4.81,2.74,1.75,6.17,1.29,7.65-1s.47-5.63-2.28-7.38c-.19-.12-.38-.23-.58-.33l-.47,.4-7.32,3.5Z"/><path class="cls-7" d="M351.85,339.34c-.69,1.11-.87,2.46-.51,3.71l11.12,.21c-.09-2.07-1.22-3.95-3-5-2.7-1.71-6.13-1.24-7.61,1.08Z"/><path class="cls-7" d="M333.73,335.51c-.86,1.43-.91,3.2-.14,4.68,3.56,.66,7.13,1.3,10,1.8l.09-.13c1.48-2.32,.46-5.63-2.28-7.38s-6.18-1.29-7.67,1.03Z"/><path class="cls-7" d="M321.27,331.36c.43,.48,.92,.89,1.46,1.24,2.74,1.75,6.17,1.29,7.65-1,.87-1.44,.92-3.22,.13-4.7l-9.24,4.46Z"/><path class="cls-11" d="M369.09,338.34l-1,1.59c-1.04-1.08-2.3-1.92-3.69-2.47l-.29-.07c-1.87-.34,1-1.59,1-1.59,0,0,3.59,1.49,3.98,2.54Z"/><path class="cls-11" d="M360.4,326.86l-1,1.6c-1.03-1.09-2.29-1.93-3.69-2.48l-.29-.07c-1.86-.33,1-1.59,1-1.59,0,0,3.59,1.49,3.98,2.54Z"/><path class="cls-11" d="M354.98,331.11l-1,1.59c-1.04-1.08-2.3-1.92-3.69-2.47l-.29-.07c-1.87-.34,1-1.59,1-1.59,0,0,3.58,1.47,3.98,2.54Z"/><path class="cls-11" d="M343.41,335.11l-1,1.6c-1.03-1.09-2.29-1.93-3.69-2.48l-.29-.07c-1.87-.33,1-1.59,1-1.59,0,0,3.58,1.45,3.98,2.54Z"/><path class="cls-11" d="M326.65,334.51l-1,1.6c-1.04-1.09-2.3-1.93-3.7-2.48l-.29-.07c-1.86-.33,1-1.59,1-1.59,0,0,3.58,1.48,3.99,2.54Z"/><path class="cls-11" d="M340.4,328.51l-1,1.59c-1.03-1.09-2.29-1.93-3.69-2.48l-.29-.07c-1.87-.33,1-1.59,1-1.59,0,0,3.58,1.49,3.98,2.55Z"/><path class="cls-5" d="M381.65,346.28s6.43-.7,3.15-4.93c-3.48-.85-7.13-.79-10.58,.18,0,0-27.37,1.22-30.92-.74,0,0-24.8-4-25.8-5.26,0,0-2,.44,4.08,3.14s25.53,5.52,25.53,5.52l20.63,1.64,7.42-.92,6.49,1.37Z"/><path class="cls-4" d="M381.65,346.28s6.43-.7,3.15-4.93c-3.48-.85-7.13-.79-10.58,.18,0,0-27.37,1.22-30.92-.74,0,0-24.8-4-25.8-5.26,0,0-2,.44,4.08,3.14s25.53,5.52,25.53,5.52l20.63,1.64,7.42-.92,6.49,1.37Z"/><path class="cls-7" d="M362.15,336.47c-.61,1.9-.26,3.97,.93,5.57,1.88,2.65,5.23,3.51,7.49,1.92s2.55-5,.66-7.7c-.13-.18-.27-.36-.41-.53l-.6,.2-8.07,.54Z"/><polygon class="cls-17" points="361.91 383.03 436.2 317.39 438.48 331.88 363.88 401.38 361.91 383.03"/><polygon class="cls-17" points="445.84 321.13 436.2 317.39 473.65 210.97 480.79 216.01 445.84 321.13"/><g class="cls-16"><path class="cls-2" d="M385.55,476.24c.07-2.57,.45-5.13,1.11-7.62l-.49,.17c-.48,2.45-.69,4.95-.62,7.45Z"/><path class="cls-2" d="M390.52,512.11c-7.78,.46-31.9-10.64-36.73-16.44-.64-.78-1.03-1.74-1.12-2.74-.29,1.65,.12,3.34,1.12,4.68,4.83,5.8,28.95,16.89,36.73,16.43,8.22-.48,35.77,1,36.74-11.6,.07-.34,.02-.69-.13-1-2.22,11.58-28.6,10.22-36.61,10.67Z"/></g><path class="cls-12" d="M418.77,277.49s1.72-2,.16-3.44c-.75-.7-6.63-3.38-12.55-6-2.91-1.28-5.84-2.54-8.17-3.54l-4.85-2.07-1.57-.4-9.45-2.41-8.89-2.27-4-.11-1.34,15.39,8.39,15.08,2.82-1.44,.49-.25,6.93-1.56,19.58-4.36,8.79-2,1-.23,2.66-.39Z"/><path class="cls-5" d="M362.85,256.78s-1.69,16.72,3.1,23.85c0,0,3.84,6.28,6.6,8.44,0,0,2.2,2.48,6.13-2.54,0,0-8.54-8.44-8.45-18.43l.08-10-7.46-1.32Z"/><ellipse class="cls-7" cx="377.08" cy="269.18" rx="4.38" ry="5.17" transform="translate(-80.93 339.01) rotate(-44.19)"/><ellipse class="cls-7" cx="391.83" cy="276.36" rx="4.38" ry="5.17" transform="translate(-81.76 351.32) rotate(-44.19)"/><path class="cls-7" d="M386.78,284.48c.27-1.73-.31-3.48-1.56-4.7-2-2-5-2.34-6.75-.65s-1.52,4.71,.47,6.76c.13,.14,.27,.27,.42,.4l.49-.25,6.93-1.56Z"/><path class="cls-7" d="M390.65,265.11c.81-.81,1.24-1.93,1.17-3.07l-9.45-2.41c-.33,1.76,.24,3.58,1.53,4.83,1.96,2.06,4.98,2.35,6.75,.65Z"/><path class="cls-7" d="M405.31,272.03c1.03-1.06,1.43-2.57,1.07-4-2.91-1.28-5.84-2.54-8.17-3.54l-.11,.09c-1.73,1.69-1.52,4.72,.47,6.77s5.01,2.37,6.74,.68Z"/><path class="cls-7" d="M415.11,278.11c-.26-.5-.6-.95-1-1.35-2-2.05-5-2.34-6.74-.65-1.03,1.05-1.44,2.57-1.06,4l8.8-2Z"/><path class="cls-11" d="M375.65,262.51l1.19-1.15c.67,1.13,1.58,2.1,2.66,2.85l.23,.12c1.53,.66-1.19,1.15-1.19,1.15,0,0-2.72-1.99-2.89-2.97Z"/><path class="cls-11" d="M380.81,274.11l1.18-1.16c.67,1.13,1.58,2.11,2.66,2.86l.23,.11c1.53,.67-1.19,1.16-1.19,1.16,0,0-2.76-2.05-2.88-2.97Z"/><path class="cls-11" d="M386.28,271.54l1.19-1.16c.67,1.13,1.58,2.11,2.66,2.86l.23,.11c1.53,.67-1.19,1.16-1.19,1.16,0,0-2.76-1.99-2.89-2.97Z"/><path class="cls-11" d="M396.96,270.46l1.19-1.16c.67,1.13,1.57,2.11,2.65,2.86l.24,.12c1.52,.66-1.19,1.15-1.19,1.15,0,0-2.76-1.99-2.89-2.97Z"/><path class="cls-11" d="M411.17,274.32l1.19-1.16c.66,1.14,1.57,2.11,2.65,2.86l.24,.11c1.52,.67-1.19,1.16-1.19,1.16,0,0-2.76-2-2.89-2.97Z"/><path class="cls-11" d="M398.21,276.67l1.19-1.15c.67,1.13,1.58,2.1,2.66,2.85,.07,.05,.15,.09,.23,.12,1.53,.66-1.19,1.16-1.19,1.16,0,0-2.76-2-2.89-2.98Z"/><path class="cls-5" d="M366.53,253.2s-5.63-.69-3.68,3.58c2.8,1.43,5.93,2.12,9.07,2,0,0,23.61,4.46,26.25,6.84,0,0,20.37,8.38,21,9.68,0,0,1.79,0-2.85-3.51s-20.67-9.86-20.67-9.86l-17.28-5.55-6.52-.71-5.32-2.47Z"/><path class="cls-4" d="M366.53,253.2s-5.63-.69-3.68,3.58c2.8,1.43,5.93,2.12,9.07,2,0,0,23.61,4.46,26.25,6.84,0,0,20.37,8.38,21,9.68,0,0,1.79,0-2.85-3.51s-20.67-9.86-20.67-9.86l-17.28-5.55-6.52-.71-5.32-2.47Z"/><path class="cls-21" d="M337.74,276.49c2.87-1.51,5.47-3.48,7.69-5.85,1-1.18,1.84-2.51,2.87-3.67,2.6-2.77,5.97-4.7,9.68-5.52,3.68-.81,7.44-1.17,11.21-1.09,2.52-.16,5.05,.14,7.46,.9,2.45,.8,4.32,2.81,4.94,5.31,.55,3-1.41,5.91-3.76,7.84-2.19,1.79-4.76,3.04-7.52,3.65-2.25,.39-4.51,.65-6.79,.79-13.38,1.4-25.32,8.68-37,15.31-10.3,5.83-16.14,5.56-26.83,10.62-.42-3.2-5.26-.72-5.19-3.95,.06-2.41,.18-6.09,2.46-7.51,2.65-1.65,7-2,10-3,6.89-2.26,13.62-4.98,20.15-8.15,3.61-1.77,7.15-3.66,10.63-5.68Z"/><path class="cls-15" d="M249.38,267.54l51.27,46.4s9.67-19.33,12.57-19.33-34.8-57-34.8-57c0,0-9.67-11.6-15.47-5.8s-23.24,1.89-13.57,35.73Z"/><path class="cls-10" d="M248.41,265.61l51.24,46.4s9.67-19.34,12.57-19.34-34.81-57-34.81-57c0,0-9.67-11.61-15.47-5.81s-23.2,1.91-13.53,35.75Z"/><path class="cls-8" d="M332.77,183.82c1.12-1.24,2.03-2.66,2.69-4.2,4.42-10-2.59-22.56-14.56-26-6-1.75-12.72-1.4-18.71-3.26-4.82-1.49-8.88-4.31-13.3-6.51-8.31-4.09-17.5-6.06-26.75-5.74-9.05,.32-18.89,3.5-22.6,10.49-5.42,10.18,4.55,23-1.49,32.91-4.44,7.28-15.21,9.43-24.14,12.59-9.25,3.2-17.66,8.41-24.64,15.27-7,7-12,16.6-8.48,25.28,2.05,5.09,6.68,9.07,10.36,13.46,12.62,14.81,13.73,36.25,2.69,52.28-1.72,2.47-3.73,4.88-4.44,7.68-1.7,6.68,5.16,13.4,13.09,14.7s16.16-1.66,22.33-6.03c5.7-3.93,10.28-9.26,13.31-15.48,7.33-15.54,2.18-33,1.45-49.73-.09-1.95,0-4.07,1.37-5.6,2.12-2.29,6.12-2.23,9.54-2.53,8.85-.78,17-5.74,20.75-12.58,7.17-13.16-1.18-31.55,11.35-41.45,15.77-12.46,38.47,7.24,50.18-5.55Z"/><path class="cls-15" d="M320.9,153.58h-.1c4.68,5.42,6.44,12.74,3.66,19.06-.66,1.54-1.57,2.96-2.69,4.2-11.71,12.79-34.41-6.91-50.18,5.55-12.53,9.9-4.18,28.29-11.35,41.45-3.72,6.84-11.9,11.8-20.75,12.58-3.42,.3-7.42,.24-9.54,2.53-1.41,1.53-1.46,3.65-1.37,5.6,.73,16.73,5.88,34.19-1.45,49.73-3.03,6.22-7.61,11.55-13.31,15.48-6.17,4.35-14.39,7.35-22.33,6.05l-.55-.12c2.74,3.83,6.9,6.39,11.55,7.12,7.94,1.29,16.11-1.71,22.33-6.07,5.7-3.93,10.28-9.26,13.31-15.48,7.33-15.54,2.18-33,1.45-49.73-.09-1.95,0-4.07,1.37-5.6,2.12-2.29,6.12-2.23,9.54-2.53,8.85-.78,17-5.74,20.75-12.58,7.17-13.16-1.18-31.55,11.35-41.45,15.77-12.46,38.47,7.24,50.18-5.55,1.12-1.24,2.03-2.66,2.69-4.2,4.42-10.03-2.59-22.51-14.56-26.04Z"/><g><path d="M153.16,33.79h-29.29v-3.69h6.54v-7.84c-2.48-1.49-3.97-3.76-3.97-6.57,0-5.19,5.06-8.6,12.02-8.61,6.93,.02,12.04,3.43,12.06,8.61-.02,2.76-1.46,4.99-3.87,6.49v7.93h6.5v3.69Zm-14.7-13.04c4.52,0,7.61-1.93,7.63-5.06-.02-3.22-3.11-5.08-7.63-5.06-4.59-.02-7.59,1.85-7.59,5.06s3.01,5.06,7.59,5.06Zm3.66,9.35v-6.22c-1.14,.23-2.37,.35-3.66,.35s-2.5-.12-3.62-.33v6.21h7.28Z"/><path d="M154.98,20.07h29.18v3.52h-29.18v-3.52Zm26.54-9.74h-8.75c.72,2.29,3.97,4.48,10.16,4.99l-1.58,3.55c-6.03-.56-10.09-2.85-11.81-5.94-1.69,3.11-5.7,5.36-11.78,5.94l-1.48-3.55c6.03-.51,9.32-2.69,10.04-4.99h-8.67v-3.55h23.87v3.55Zm-23.17,15.64h22.32v11.18h-22.32v-11.18Zm17.93,7.59v-4.04h-13.5v4.04h13.5Z"/><path d="M223.64,27.07h-12.52v10.48h-4.43v-10.48h-12.34v-3.66h29.29v3.66Zm-14.73-20.5c6.87,.02,11.67,2.83,11.67,7.28s-4.8,7.14-11.67,7.14-11.62-2.79-11.6-7.14c-.02-4.45,4.73-7.26,11.6-7.28Zm0,10.86c4.32-.02,7.03-1.3,7.03-3.59s-2.71-3.67-7.03-3.69c-4.29,.02-7.01,1.32-7,3.69-.02,2.29,2.71,3.57,7,3.59Z"/><path d="M227.19,8.19h15.22v12.34h-10.55v5.87c4.89-.04,9.02-.28,13.71-1.05l.39,3.62c-5.26,.93-10.02,1.12-15.86,1.12h-2.88v-13.11h10.62v-5.17h-10.65v-3.62Zm25.14,29.39h-4.46V5.52h4.46V37.58Z"/><path d="M266.11,8.82h16.77v4.36h-11.5v6.19h10.41v4.36h-10.41v10.55h-5.27V8.82Z"/><path d="M286.36,8.82h9.98c5.78,0,9.11,3.57,9.11,8.58s-3.38,8.58-9.25,8.58h-4.57v8.3h-5.27V8.82Zm9,12.9c3.13,0,4.66-1.76,4.64-4.32,.02-2.53-1.51-4.24-4.64-4.25h-3.73v8.58h3.73Z"/><path d="M324.05,9.88h12.83v-3.2h4.46v13.08h-8.65v2.71h12.38v3.59h-29.18v-3.59h12.3v-2.71h-8.58V6.68h4.43v3.2Zm-4.64,18h4.5v5.48h17.86v3.59h-22.36v-9.07Zm17.47-11.71v-2.85h-12.83v2.85h12.83Z"/><path d="M376.26,27.49h-12.52v10.02h-4.43v-10.02h-12.34v-3.52h29.29v3.52Zm-25.84-20.74h4.43v3.69h13.43v-3.69h4.5v14.13h-22.36V6.75Zm17.86,10.55v-3.34h-13.43v3.34h13.43Z"/><path d="M398.55,27.18l-2.43,3.52c-3.76-1.6-6.36-4.78-7.8-8.65-1.44,4.2-4.1,7.72-7.88,9.46l-2.57-3.55c5.31-2.37,8.05-8.3,8.05-13.71v-1.97h-6.79v-3.66h18.07v3.66h-6.68v1.97c-.02,5.17,2.65,10.71,8.02,12.94Zm1.83-21.66h4.54v31.99h-4.54V5.52Z"/><path d="M429.66,18.77l.25,3.2c-2.53,.42-5.15,.72-7.73,.91v6.08h-4.5v4.39h19.37v3.59h-23.84v-9.56h4.46v-4.24c-2.87,.11-5.59,.12-8.02,.12l-.53-3.55c5.85-.04,13.76-.12,20.53-.95Zm-10.12-12.13c4.64-.02,7.96,2.32,7.98,5.73-.02,3.43-3.34,5.64-7.98,5.62-4.76,.02-8.05-2.2-8.05-5.62s3.29-5.75,8.05-5.73Zm0,8.12c2.14,.02,3.69-.84,3.73-2.39-.04-1.58-1.58-2.46-3.73-2.46-2.29,0-3.81,.88-3.8,2.46-.02,1.55,1.51,2.41,3.8,2.39Zm16.8,14.94h-4.5v-2.53h-6.12v-3.06h6.12V5.55h4.5V29.71Z"/><path d="M441.58,7.52h14.27v3.55h-9.77v7.63c5.8-.04,8.98-.26,12.55-.98l.46,3.52c-4.03,.93-7.72,1.05-14.8,1.05h-2.71V7.52Zm3.23,17.3h20.92v12.3h-20.92v-12.3Zm16.49,8.79v-5.24h-12.06v5.24h12.06Zm4.43-20.88h4.32v3.69h-4.32v7.07h-4.5V5.52h4.5v7.21Z"/><path d="M472.59,7.66h14.38v3.59h-9.91v7.45c5.94-.04,9.19-.23,12.76-.98l.39,3.59c-3.96,.86-7.72,1-14.94,1.02h-2.67V7.66Zm13.78,16.95c6.57,0,10.78,2.37,10.79,6.4-.02,4.11-4.22,6.52-10.79,6.5-6.7,.02-10.99-2.39-10.97-6.5-.02-4.03,4.27-6.4,10.97-6.4Zm0,9.35c4.06,0,6.42-1.02,6.43-2.95-.02-1.88-2.37-2.87-6.43-2.85-4.2-.02-6.56,.97-6.54,2.85-.02,1.93,2.34,2.95,6.54,2.95Zm10.55-20.85h4.25v3.66h-4.25v7.28h-4.57V5.52h4.57v7.59Z"/><path d="M512,7.77c4.82,0,8.4,4.41,8.4,11.39s-3.59,11.43-8.4,11.43-8.49-4.39-8.47-11.43c-.02-6.98,3.55-11.39,8.47-11.39Zm0,18.74c2.43,.02,4.06-2.58,4.08-7.35-.02-4.75-1.65-7.35-4.08-7.35s-4.17,2.6-4.15,7.35c-.02,4.76,1.65,7.37,4.15,7.35Zm17.37,11.07h-4.54V5.52h4.54V37.58Z"/><path d="M131.39,54.24h-6.43v-3.59h17.37v3.59h-6.36c.09,3.73,2.37,7.49,7.35,9.14l-2.21,3.52c-3.52-1.14-5.96-3.46-7.35-6.33-1.41,3.25-3.97,5.87-7.77,7.17l-2.32-3.55c5.24-1.76,7.63-5.94,7.73-9.95Zm8.51,14.17c6.84,.02,11.02,2.3,11.04,6.19-.02,3.88-4.2,6.15-11.04,6.15s-11-2.27-11-6.15,4.18-6.17,11-6.19Zm0,8.93c4.25,0,6.56-.91,6.57-2.74-.02-1.85-2.32-2.76-6.57-2.74-4.24-.02-6.54,.9-6.54,2.74s2.3,2.74,6.54,2.74Zm10.93-9.63h-4.46v-7.56h-4.99v-3.62h4.99v-7.8h4.46v18.98Z"/><path d="M175.51,70.02l-2.64,3.59c-3.66-1.65-6.19-4.85-7.65-8.81-1.44,4.32-4.06,7.8-7.96,9.58l-2.71-3.73c5.59-2.36,8.31-8.49,8.33-14.7v-4.78h4.54v4.78c-.02,5.87,2.65,11.76,8.09,14.06Zm1.72-21.3h4.54v32.06h-4.54V48.72Z"/><path d="M205.26,66.97h-6.33v4.01c2.64-.16,5.27-.39,7.77-.74l.35,3.23c-7.1,1.41-14.7,1.41-20.29,1.48l-.53-3.66c2.41,0,5.24-.02,8.23-.12v-4.2h-5.98v-15.64h16.66v3.59h-12.13v2.53h11.5v3.41h-11.5v2.6h12.23v3.52Zm3.27-18.25h4.46v32.06h-4.46V48.72Z"/><path d="M243.01,53.22c.02,2.71,.02,5.75-.7,9.67h4.18v3.59h-29.29v-3.59h20.53c.7-3.57,.79-6.26,.81-8.79h-17.75v-3.59h22.22v2.71Zm-22.08,16.07h4.43v7.24h18.56v3.59h-22.99v-10.83Z"/><path d="M256.62,52.09h7.28v-3.41h4.46v3.41h7.24v3.55h-18.98v-3.55Zm9.49,4.68c4.64,0,7.88,2.48,7.88,6.19s-3.23,6.12-7.88,6.12-7.95-2.43-7.95-6.12,3.29-6.19,7.95-6.19Zm-4.85,14.03h4.46v5.77h17.44v3.59h-21.9v-9.35Zm4.85-5.13c2.16,0,3.62-.95,3.62-2.71s-1.46-2.76-3.62-2.78c-2.14,.02-3.57,1-3.55,2.78-.02,1.76,1.41,2.71,3.55,2.71Zm15.89-7.1h4.32v3.66h-4.32v10.41h-4.5v-23.87h4.5v9.81Z"/><path d="M288.65,52.41h11.92v3.62h-7.42v13.68c3.09-.05,5.84-.23,8.93-.77l.32,3.66c-3.9,.74-7.31,.86-11.53,.88h-2.21v-21.06Zm26.75,28.3h-4.25v-16.07h-3.09v14.52h-4.11v-29.92h4.11v11.81h3.09v-12.34h4.25v31.99Z"/><path d="M323.45,71.92c1.56-.02,2.92,1.3,2.92,2.92s-1.35,2.95-2.92,2.95c-1.65,0-2.99-1.32-2.95-2.95-.04-1.62,1.3-2.94,2.95-2.92Zm2.21-2.07h-4.5l-.46-17.82h5.41l-.46,17.82Z"/></g><g><path d="M597.31,37.12h-6.43v-3.59h17.37v3.59h-6.36c.09,3.73,2.37,7.49,7.35,9.14l-2.21,3.52c-3.52-1.14-5.96-3.46-7.35-6.33-1.41,3.25-3.97,5.87-7.77,7.17l-2.32-3.55c5.24-1.76,7.63-5.94,7.73-9.95Zm8.51,14.17c6.84,.02,11.02,2.3,11.04,6.19-.02,3.88-4.2,6.15-11.04,6.15s-11-2.27-11-6.15,4.18-6.17,11-6.19Zm0,8.93c4.25,0,6.56-.91,6.57-2.74-.02-1.85-2.32-2.76-6.57-2.74-4.24-.02-6.54,.9-6.54,2.74s2.3,2.74,6.54,2.74Zm10.93-9.63h-4.46v-7.56h-4.99v-3.62h4.99v-7.8h4.46v18.98Z"/><path d="M621.85,33.12h15.36v13.29h-15.36v-13.29Zm3.2,15.75h21.23v8.72h-16.77v2.14h17.68v3.52h-22.08v-8.89h16.7v-2.04h-16.77v-3.45Zm7.73-6.01v-6.22h-6.5v6.22h6.5Zm13.5-5.06h4.32v3.69h-4.32v6.12h-4.5v-16h4.5v6.19Z"/><path d="M660.91,45.32c1.51-.98,2.69-2.07,2.67-3.69,.02-1.76-1.35-2.9-3.06-2.92-1.63,.02-3.16,1.11-3.23,3.16h-4.99c.09-4.94,3.76-7.31,8.26-7.31,4.9,0,8.37,2.55,8.37,6.89,0,2.9-1.49,4.73-3.8,6.12-1.99,1.18-2.87,2.32-2.88,4.78v.39h-4.64v-.39c.02-4.38,1.2-5.71,3.3-7.03Zm-.88,9.49c1.56-.02,2.92,1.3,2.92,2.92s-1.35,2.95-2.92,2.95c-1.65,0-2.99-1.32-2.95-2.95-.04-1.62,1.3-2.94,2.95-2.92Z"/><path d="M696.7,43.17h5.55v-11.57h4.43V63.67h-4.43v-16.91h-5.5c-.47,6.15-3.78,9.91-8.24,9.91-4.85,0-8.33-4.39-8.3-11.43-.04-6.98,3.45-11.39,8.3-11.39,4.32,0,7.56,3.55,8.19,9.32Zm-8.19,9.42c2.41,.02,4.01-2.58,4.01-7.35s-1.6-7.35-4.01-7.35-4.03,2.6-4.01,7.35c-.02,4.76,1.62,7.37,4.01,7.35Z"/><path d="M711.32,32.91h8.4v3.48h-4.04v6.75c1.44-.07,2.81-.23,4.36-.56l.28,3.52c-2.69,.53-4.69,.56-7.45,.56h-1.55v-13.75Zm27.21,20.74h-23.66v-3.41h9.6v-2.5h4.5v2.5h9.56v3.41Zm-11.88,.95c5.89,.02,9.42,1.63,9.42,4.5s-3.53,4.54-9.42,4.54-9.44-1.58-9.42-4.54c-.02-2.87,3.52-4.48,9.42-4.5Zm-5.45-21.69h8.96v3.48h-4.54v6.77c2.27-.05,3.69-.19,5.34-.58l.32,3.52c-2.23,.51-4.15,.56-8.37,.56h-1.72v-13.75Zm5.45,27.67c2.95,0,4.55-.44,4.57-1.48-.02-.97-1.62-1.39-4.57-1.41-3.01,.02-4.64,.44-4.64,1.41,0,1.04,1.63,1.48,4.64,1.48Zm2.64-22.78h4.36v-6.19h4.39v17.05h-4.39v-7.45h-4.36v-3.41Z"/><path d="M751.45,39.02h-8.17v-3.62h12.62c0,3.06-.33,5.91-1.11,8.54h3.85v-11.64h4.18v29.88h-4.18v-14.7h-5.24c-1.83,3.66-4.8,6.82-9.35,9.46l-2.53-3.16c6.47-3.83,9.32-8.49,9.93-14.77Zm18.19,24.57h-4.22V31.6h4.22v31.99Z"/><path d="M781.92,45.32c1.51-.98,2.69-2.07,2.67-3.69,.02-1.76-1.35-2.9-3.06-2.92-1.63,.02-3.16,1.11-3.23,3.16h-4.99c.09-4.94,3.76-7.31,8.26-7.31,4.9,0,8.37,2.55,8.37,6.89,0,2.9-1.49,4.73-3.8,6.12-1.99,1.18-2.87,2.32-2.88,4.78v.39h-4.64v-.39c.02-4.38,1.2-5.71,3.3-7.03Zm-.88,9.49c1.56-.02,2.92,1.3,2.92,2.92s-1.35,2.95-2.92,2.95c-1.65,0-2.99-1.32-2.95-2.95-.04-1.62,1.3-2.94,2.95-2.92Z"/></g></g></svg>