<?xml version="1.0" encoding="UTF-8"?><svg id="_이어_2" xmlns="http://www.w3.org/2000/svg" viewBox="0 0 789.38 677.27"><defs><style>.cls-1{fill:#f0f0f0;}.cls-2{fill:#2f2e41;}.cls-3{fill:#fff;}.cls-4{fill:#cacaca;}.cls-5{fill:#121c72;}.cls-6{fill:#e6e6e6;}.cls-7{fill:#e4e4e4;}.cls-8{fill:#9e616a;}</style></defs><g id="_이어_1-2"><path class="cls-1" d="M776,596.56c-3.32-26.68-19.85-52.96-45.29-61.65,10.03,27.46,10.03,57.58,0,85.04-3.91,10.58-9.36,21.93-5.68,32.59,2.29,6.63,7.89,11.71,14.14,14.88,6.26,3.17,13.2,4.68,20.06,6.17l1.35,1.12c10.89-24.58,18.75-51.47,15.43-78.14Z"/><path class="cls-3" d="M730.45,535.42c14.82,16.6,24.03,37.45,26.32,59.58,.58,4.76,.4,9.57-.52,14.28-1.05,4.55-3.29,8.74-6.5,12.13-2.93,3.22-6.3,6.18-8.4,10.05-2.11,4.05-2.4,8.8-.78,13.07,1.85,5.31,5.5,9.64,9.22,13.75,4.13,4.56,8.48,9.24,10.24,15.29,.21,.73,1.34,.36,1.13-.37-3.05-10.52-13.27-16.5-18.14-25.98-2.27-4.42-3.23-9.56-1.1-14.23,1.86-4.08,5.34-7.13,8.33-10.37,3.18-3.26,5.52-7.25,6.8-11.62,1.16-4.64,1.52-9.44,1.07-14.2-.85-10.73-3.38-21.27-7.5-31.21-4.64-11.38-11.19-21.88-19.37-31.05-.51-.57-1.29,.33-.78,.89Z"/><path class="cls-3" d="M756.45,587.84c7.56-1.84,12.68-8.88,12.09-16.64-.06-.76-1.24-.7-1.18,.06,.56,7.23-4.22,13.79-11.28,15.45-.74,.18-.37,1.3,.37,1.13Z"/><path class="cls-3" d="M751.45,619.97c-6.61-3.95-11.49-10.24-13.67-17.63-.22-.73-1.34-.36-1.13,.37,2.28,7.68,7.37,14.23,14.26,18.32,.66,.39,1.19-.67,.53-1.06Z"/><path class="cls-3" d="M744.87,555.33c-2.73,1.3-5.93,1.14-8.52-.43-.65-.4-1.18,.66-.53,1.06,2.86,1.72,6.39,1.91,9.42,.5,.3-.11,.47-.44,.38-.75-.1-.31-.44-.48-.75-.38h0Z"/><path class="cls-1" d="M653.15,582.57c.4,.26,.8,.52,1.2,.79,5.36,3.52,10.42,7.48,15.14,11.82,.37,.33,.74,.67,1.1,1.01,11.26,10.59,20.45,23.17,27.11,37.11,2.65,5.55,4.87,11.29,6.64,17.18,2.45,8.13,4.46,17.14,9.31,23.79,.5,.7,1.04,1.37,1.62,2h43.83c.1-.05,.2-.09,.3-.14l1.75,.08c-.07-.31-.15-.63-.22-.94-.04-.18-.09-.36-.13-.54-.03-.12-.06-.24-.08-.35,0-.04-.02-.08-.03-.11-.02-.11-.05-.21-.07-.31-.44-1.79-.89-3.58-1.36-5.37t0-.02c-3.59-13.63-8.35-27.08-15-39.38-.2-.37-.4-.75-.62-1.12-3.03-5.53-6.5-10.8-10.39-15.76-2.14-2.71-4.41-5.31-6.81-7.79-6.21-6.4-13.39-11.78-21.28-15.94-15.72-8.3-33.92-11.48-50.72-6.41-.43,.13-.85,.26-1.28,.4Z"/><path class="cls-3" d="M653.25,583.13c21.83,4.33,41.73,15.44,56.89,31.73,3.33,3.45,6.09,7.4,8.18,11.71,1.9,4.26,2.63,8.96,2.11,13.6-.4,4.34-1.31,8.73-.65,13.08,.75,4.5,3.39,8.47,7.24,10.91,4.68,3.13,10.2,4.38,15.64,5.43,6.04,1.16,12.34,2.27,17.38,6.04,.61,.46,1.28-.52,.67-.97-8.77-6.57-20.53-5.19-30.13-9.82-4.48-2.16-8.33-5.69-9.44-10.7-.97-4.38-.03-8.91,.41-13.3,.58-4.52,.04-9.11-1.57-13.37-1.87-4.4-4.47-8.45-7.7-11.98-7.14-8.06-15.5-14.94-24.78-20.41-10.56-6.29-22.11-10.73-34.16-13.13-.75-.15-.83,1.03-.09,1.18h0Z"/><path class="cls-3" d="M705.57,609.32c4.93-6.02,4.78-14.72-.36-20.56-.51-.57-1.42,.19-.91,.76,4.8,5.43,4.93,13.55,.3,19.13-.49,.59,.49,1.26,.97,.67h0Z"/><path class="cls-3" d="M720.92,637.99c-7.66,.83-15.35-1.26-21.53-5.85-.61-.46-1.29,.52-.67,.97,6.45,4.76,14.45,6.92,22.42,6.04,.76-.08,.54-1.25-.21-1.17h0Z"/><path class="cls-3" d="M676.75,590.34c-1.4,2.68-4.05,4.48-7.06,4.78-.76,.07-.54,1.24,.21,1.17,3.32-.35,6.25-2.33,7.83-5.28,.18-.27,.11-.63-.15-.82-.27-.18-.64-.12-.82,.15Z"/><path class="cls-8" d="M438.7,100.49c-3.99,4.98-3.19,12.25,1.79,16.24,.53,.43,1.1,.8,1.7,1.13l-6.76,40.5,19.5-8.65,3.43-37.13c2.69-5.82,.16-12.73-5.67-15.42-4.87-2.25-10.65-.87-13.99,3.34Z"/><polygon class="cls-8" points="614.15 660.78 598.2 660.78 590.62 599.27 614.15 599.27 614.15 660.78"/><path class="cls-2" d="M618.21,676.23h-51.42v-.65c0-11.05,8.96-20.01,20.01-20.01h31.4v20.66Z"/><polygon class="cls-8" points="507.15 660.78 491.2 660.78 483.62 599.27 507.15 599.27 507.15 660.78"/><path class="cls-2" d="M511.21,676.23h-51.42v-.65c0-11.05,8.96-20.01,20.01-20.01h31.4v20.66Z"/><path class="cls-2" d="M500.5,373.77l-5.96,7.84s-.54,3.66-9.58,33.49l-4.96,224.18h30l40.1-179.37,41.62,182.96,26.01,1.53-1.22-207.96s3.28-42.78-8.36-50.73-107.64-11.95-107.64-11.95Z"/><circle class="cls-8" cx="540.73" cy="153.91" r="31.48" transform="translate(302.2 663) rotate(-80.78)"/><path class="cls-2" d="M572.4,158.83l-.52-1.04c-.8-1.61-7.46-14.98-8.3-18.41l-8.38,.99h-21.82l3.03-4.54-8.01,1.05c-2.93,.36-5.73,1.41-8.17,3.08-1.49,.99-2.76,2.3-3.7,3.82-2.86,4.9-7.24,12.92-7.28,13l-.42,.77-3.63-6.11c-.05-.24-4.55-23.73,10.52-31.7,.78-1.58,7.4-14,23.06-13.16,1.72-1.96,4.15-3.17,6.75-3.35,3.58-.19,7.29,1.69,11.02,5.61,4.95,5.2,11.73,12.32,15.84,20.23l1.13,1.61c1.61,2.31,2.4,5.09,2.26,7.9,.87,4.49,.56,9.12-.9,13.45l-2.48,6.83Z"/><path class="cls-7" d="M564.72,191.31l17.42,9.63,34.22,9.58-10.21,89.55,1.86,88.2s-57.92,39.68-113.46-6.66v-111.02l3.29-60.07s13.29-3.78,19.98,2.74l12.69-16.49,34.22-5.46Z"/><polygon class="cls-7" points="505.5 218.77 497.83 210.52 455.53 205.73 459.5 140.77 436.44 124.32 419.5 215.77 497.76 270.58 505.5 218.77"/><path class="cls-8" d="M591.23,417.42c-1.19-6.27,2.92-12.32,9.19-13.51,.67-.13,1.35-.19,2.03-.2l13.02-38.94,13.17,16.79-14.38,34.4c-.35,6.41-5.83,11.31-12.24,10.96-5.36-.29-9.82-4.22-10.79-9.5h0Z"/><path class="cls-7" d="M603.5,220.77l12.86-10.25s13.14,7.25,17.14,20.25,11,87,11,87l-19,95-21.25-14.74,10.25-75.26-18-55,7-47Z"/><rect class="cls-6" x="118.14" y="67.89" width="324.2" height="78.78"/><path class="cls-3" d="M126.65,138.17H433.84v-61.77H126.65v61.77Z"/><circle class="cls-5" cx="185.16" cy="107.28" r="23.53"/><rect class="cls-5" x="241.43" y="98.08" width="157.43" height="5.12"/><rect class="cls-5" x="241.43" y="111.38" width="157.43" height="5.12"/><path id="b9910470-ced5-4346-b4bb-f41b58844e24-328" class="cls-6" d="M0,187.63l274.31,20.01v72.02L0,274.57v-86.94Z"/><path id="bc7e8449-b99b-4317-a70a-91d17db61b29-329" class="cls-3" d="M8.64,265.4l259.68,6.35v-56.73L8.64,197.6v67.8Z"/><path id="a430bd6b-b2b0-4af3-a079-7f5fd15b0624-330" class="cls-6" d="M65.64,209.2c3,.19,5.92,1.04,8.56,2.48,2.65,1.45,4.99,3.38,6.92,5.7,2,2.4,3.56,5.13,4.63,8.07,1.12,3.09,1.69,6.36,1.69,9.64,.01,3.24-.56,6.45-1.69,9.49-1.05,2.82-2.62,5.42-4.63,7.65-1.93,2.15-4.28,3.88-6.92,5.07-2.69,1.21-5.61,1.79-8.56,1.69-3.01-.1-5.97-.85-8.65-2.22-2.72-1.39-5.14-3.3-7.14-5.61-2.09-2.42-3.73-5.19-4.85-8.19-1.18-3.17-1.79-6.52-1.79-9.9-.01-3.33,.59-6.63,1.79-9.74,1.1-2.87,2.75-5.5,4.85-7.74,2-2.14,4.44-3.83,7.14-4.96,2.74-1.13,5.7-1.62,8.65-1.43Z"/><path id="af019097-0949-417a-9d8d-f710312ce60c-331" class="cls-6" d="M116.73,227.03l126.39,6.59v4.79l-126.39-6.14v-5.23Z"/><path id="f94f3612-92b8-42d6-ae14-2a9ea684588e-332" class="cls-6" d="M116.73,240.63l126.39,5.43v4.79l-126.39-4.98v-5.23Z"/><path id="bb553635-e14d-4b1e-b72c-855829e3ad86-333" class="cls-6" d="M0,333.95l274.31-5.09v72.02L0,420.89v-86.94Z"/><path id="e92d7e39-9dcb-4c0c-b0b9-55aac094bc0c-334" class="cls-3" d="M8.64,410.92l259.68-17.42v-56.73l-259.68,6.35v67.79Z"/><path id="f8649409-803b-4d56-993a-4da6ceb3c345-335" class="cls-6" d="M43.23,374.29c.13-3.38,.87-6.7,2.18-9.82,1.23-2.94,2.98-5.63,5.17-7.94,2.08-2.21,4.57-3.99,7.34-5.25,2.74-1.23,5.71-1.84,8.71-1.78,2.94,.06,5.84,.79,8.46,2.13,2.58,1.33,4.85,3.18,6.69,5.42,1.91,2.34,3.38,5.02,4.31,7.89,1,3.09,1.45,6.33,1.31,9.58-.13,3.29-.83,6.52-2.07,9.57-1.17,2.89-2.85,5.54-4.94,7.85-2.01,2.23-4.43,4.05-7.13,5.36-2.69,1.31-5.64,2-8.64,2.04-2.96,.04-5.9-.61-8.57-1.88-2.65-1.27-5.01-3.09-6.92-5.33-2.01-2.35-3.54-5.07-4.52-8-1.06-3.17-1.53-6.5-1.39-9.84Z"/><path id="f70c4d59-0dd2-4f0b-ba41-17bf719deab5-336" class="cls-6" d="M116.73,362.66l126.39-4.98v4.79l-126.39,5.43v-5.23Z"/><path id="ba176e8f-fd02-45f1-a5f1-dcef4bb8b7ed-337" class="cls-6" d="M116.73,376.26l126.39-6.14v4.79l-126.39,6.59v-5.23Z"/><path class="cls-4" d="M788.38,677.27H407.38c-.55,0-1-.45-1-1s.45-1,1-1h381c.55,0,1,.45,1,1s-.45,1-1,1Z"/><g><path d="M282.39,8.82h9.98c5.78,0,9.11,3.25,9.11,8.3,0,3.48-1.6,6.01-4.5,7.26l5.41,9.9h-5.84l-4.87-9.04h-4.03v9.04h-5.27V8.82Zm9,12.13c3.13,0,4.66-1.28,4.64-3.83,.02-2.57-1.51-3.96-4.64-3.97h-3.73v7.8h3.73Z"/><path d="M305.13,8.82h9.98c5.78,0,9.11,3.57,9.11,8.58s-3.38,8.58-9.25,8.58h-4.57v8.3h-5.27V8.82Zm9,12.9c3.13,0,4.66-1.76,4.64-4.32,.02-2.53-1.51-4.24-4.64-4.25h-3.73v8.58h3.73Z"/><path d="M323.19,34.28l8.82-25.45h6.79l8.79,25.45h-5.66l-1.92-5.87h-9.21l-1.92,5.87h-5.7Zm15.49-9.98l-3.18-9.74h-.18l-3.18,9.74h6.54Z"/><path d="M363.09,21.5v-6.28h4.46v6.13c3.2-.14,6.45-.39,9.46-.83l.25,3.23c-6.66,1.23-14.15,1.35-19.72,1.37l-.39-3.59c1.79,0,3.81,0,5.94-.05Zm12.41-11.65c0,2.21,0,5.41-.74,9.39l-4.39-.42c.58-3.06,.72-5.4,.76-7.31h-12.08v-3.66h16.45v2Zm-13.64,17.47h4.5v6.05h17.96v3.59h-22.46v-9.63Zm16.88-21.8h4.61V15.26h3.87v3.76h-3.87v10.44h-4.61V5.52Z"/><path d="M404.05,17.96h-9.67v3.66c4.39-.04,7.42-.23,10.83-.81l.49,3.62c-4.11,.7-7.66,.79-13.36,.81h-2.46V14.62h9.67v-3.34h-9.7v-3.59h14.2v10.27Zm-9.84,9.39h4.46v5.91h17.79v3.66h-22.25v-9.56Zm11.71-9.77h5.27v-3.62h-5.27v-3.55h5.27V5.55h4.46V29.18h-4.46v-7.98h-5.27v-3.62Z"/><path d="M435.23,13.96h-15.47v-3.55h5.55V6.4h4.43v4.01h5.48v3.55Zm-7.66,1.44c4.1,.02,7.01,3.15,7.03,7.59-.02,4.46-2.94,7.63-7.03,7.63s-7.07-3.16-7.07-7.63,2.99-7.58,7.07-7.59Zm0,11.43c1.79,0,3.08-1.39,3.09-3.83-.02-2.41-1.3-3.87-3.09-3.87s-3.13,1.46-3.13,3.87,1.27,3.83,3.13,3.83Zm8.86-20.67h4.18v12.38h2.6V5.52h4.25v31.99h-4.25v-15.4h-2.6v14.03h-4.18V6.15Z"/><path d="M470.77,26.93l-2.74,3.59c-3.55-1.72-5.94-4.92-7.28-8.88-1.37,4.2-3.83,7.65-7.49,9.44l-2.81-3.66c5.48-2.48,7.98-8.65,8.02-14.66V7.98h4.54v4.78c.02,6.01,2.44,11.87,7.77,14.17Zm-3.59-11.36h6.29V5.52h4.43V37.58h-4.43V19.2h-6.29v-3.62Z"/><path d="M516.12,9.18c.02,2.39,.02,5.17-.67,8.58h4.15v3.59h-12.48v3.96c5.68,.42,9.09,2.58,9.11,6.03-.02,3.97-4.32,6.21-11.32,6.19-7.05,.02-11.37-2.21-11.36-6.19-.02-3.45,3.39-5.59,9.11-6.03v-3.96h-12.34v-3.59h20.62c.62-3.04,.69-5.4,.72-7.56h-17.75v-3.55h22.22v2.53Zm-11.21,24.79c4.41,0,6.79-.84,6.79-2.64s-2.37-2.55-6.79-2.57c-4.48,.02-6.86,.83-6.86,2.57s2.37,2.64,6.86,2.64Z"/><path d="M547.24,9.53c.02,2.5,.02,5.26-.76,8.93h4.24v3.62h-29.29v-3.62h20.53c.69-3.18,.77-5.66,.81-7.91h-17.75v-3.59h22.22v2.57Zm-22.32,15.93h22.22v11.71h-22.22v-11.71Zm17.75,8.12v-4.61h-13.36v4.61h13.36Z"/><path d="M552.55,8.89h7.28v-3.41h4.46v3.41h7.24v3.55h-18.98v-3.55Zm9.49,4.68c4.64,0,7.88,2.48,7.88,6.19s-3.23,6.12-7.88,6.12-7.95-2.43-7.95-6.12,3.29-6.19,7.95-6.19Zm-4.85,14.03h4.46v5.77h17.44v3.59h-21.9v-9.35Zm4.85-5.13c2.16,0,3.62-.95,3.62-2.71s-1.46-2.76-3.62-2.78c-2.14,.02-3.57,1-3.55,2.78-.02,1.76,1.41,2.71,3.55,2.71Zm15.89-7.1h4.32v3.66h-4.32v10.41h-4.5V5.55h4.5V15.36Z"/><path d="M621.21,27.49h-12.52v10.02h-4.43v-10.02h-12.34v-3.52h29.29v3.52Zm-25.84-20.74h4.43v3.69h13.43v-3.69h4.5v14.13h-22.36V6.75Zm17.86,10.55v-3.34h-13.43v3.34h13.43Z"/><path d="M652.32,25.45h-12.06v5.17h-4.43v-5.17h-12.8v-3.52h29.29v3.52Zm-25.84,2.64h4.43v5.27h18.18v3.59h-22.61v-8.86Zm.32-21.55h4.43v3.34h12.83v-3.34h4.46v13.15h-21.73V6.54Zm17.26,9.6v-2.92h-12.83v2.92h12.83Z"/><path d="M663.6,7.77c4.82,0,8.4,4.41,8.4,11.39s-3.59,11.43-8.4,11.43-8.49-4.39-8.47-11.43c-.02-6.98,3.55-11.39,8.47-11.39Zm0,18.74c2.43,.02,4.06-2.58,4.08-7.35-.02-4.75-1.65-7.35-4.08-7.35s-4.17,2.6-4.15,7.35c-.02,4.76,1.65,7.37,4.15,7.35Zm17.37,11.07h-4.54V5.52h4.54V37.58Z"/><path d="M694.54,7.52h15.36v13.32h-15.36V7.52Zm1.93,16.63h4.36v8.86c1.78-.12,3.45-.39,5.1-.91l.63,3.48c-2.69,.97-5.27,1.09-8.33,1.09h-1.76v-12.52Zm9-6.82v-6.33h-6.5v6.33h6.5Zm0,7.14h5.91v-2.32h4.36v2.32h5.84v3.23h-16.1v-3.23Zm8.02,4.04c3.67,0,6.21,1.71,6.22,4.5-.02,2.74-2.55,4.46-6.22,4.46s-6.19-1.72-6.15-4.46c-.04-2.79,2.48-4.5,6.15-4.5Zm0,5.98c1.28,0,2.2-.49,2.21-1.48-.02-.98-.93-1.46-2.21-1.48-1.27,.02-2.2,.49-2.18,1.48-.02,.98,.91,1.48,2.18,1.48Zm5.48-22.25h4.32v3.69h-4.32v5.55h-4.5V5.52h4.5v6.71Z"/><path d="M741.76,19.16c-.02,7.03-3.55,11.43-8.44,11.43s-8.46-4.39-8.44-11.43c-.02-6.98,3.53-11.39,8.44-11.39s8.42,4.41,8.44,11.39Zm-8.44,7.35c2.5,.02,4.13-2.58,4.15-7.35-.02-4.75-1.65-7.35-4.15-7.35s-4.11,2.6-4.11,7.35,1.67,7.37,4.11,7.35Zm12.13-20.99h4.5v12.06h4.71v3.73h-4.71v16.21h-4.5V5.52Z"/><path d="M760.43,28.72c1.56-.02,2.92,1.3,2.92,2.92s-1.35,2.95-2.92,2.95c-1.65,0-2.99-1.32-2.95-2.95-.04-1.62,1.3-2.94,2.95-2.92Zm2.21-2.07h-4.5l-.46-17.82h5.41l-.46,17.82Z"/></g></g></svg>