<?xml version="1.0" encoding="UTF-8"?><svg id="_이어_2" xmlns="http://www.w3.org/2000/svg" viewBox="0 0 802.51 589.13"><defs><style>.cls-1{fill:#2f2e41;}.cls-2,.cls-3,.cls-4,.cls-5{fill:#121c72;}.cls-2,.cls-3,.cls-5,.cls-6,.cls-7,.cls-8,.cls-9,.cls-10,.cls-11{isolation:isolate;}.cls-2,.cls-8,.cls-10{opacity:.8;}.cls-12{fill:#fff;}.cls-13{fill:#cbcbcb;}.cls-3,.cls-6,.cls-9{opacity:.4;}.cls-14,.cls-8,.cls-9,.cls-11{fill:#3f3d56;}.cls-5,.cls-7,.cls-11{opacity:.6;}.cls-6,.cls-7,.cls-15,.cls-10{fill:#e6e6e6;}.cls-16{fill:#e5e5e5;}.cls-17{fill:#ccc;}.cls-18{fill:#feb8b8;}.cls-19{fill:#f2f2f2;}</style></defs><g id="_이어_1-2"><path class="cls-17" d="M57.4,291.78c1.03,2.17,2.12,4.34,3.24,6.47l1.06-.56c-1.11-2.11-2.19-4.27-3.22-6.42l-1.08,.52Z"/><path class="cls-17" d="M64.13,304.58c1.2,2.08,2.47,4.16,3.75,6.19l1.01-.64c-1.28-2.01-2.53-4.08-3.73-6.15l-1.04,.6Z"/><path class="cls-17" d="M51.71,278.49c.85,2.24,1.76,4.49,2.71,6.7l1.1-.47c-.94-2.2-1.84-4.43-2.69-6.66l-1.12,.43Z"/><path class="cls-17" d="M71.89,316.79c1.37,1.98,2.79,3.95,4.24,5.87l.96-.72c-1.44-1.91-2.85-3.87-4.21-5.83l-.99,.68Z"/><path class="cls-17" d="M198.01,35.8l.14,1.19h0c2.37-.28,4.78-.53,7.17-.72l-.1-1.2c-2.4,.19-4.82,.44-7.21,.73Z"/><path class="cls-17" d="M41.35,221.87l-1.2,.05c.1,2.4,.25,4.83,.44,7.23l1.2-.1c-.19-2.38-.34-4.8-.44-7.19Z"/><path class="cls-17" d="M47.11,264.74c.67,2.31,1.4,4.64,2.16,6.92l1.14-.38c-.76-2.27-1.48-4.58-2.15-6.87l-1.15,.33Z"/><path class="cls-17" d="M41.2,214.48c0-2.33,.04-4.68,.13-7l-1.2-.05c-.09,2.33-.13,4.7-.13,7.04v.2h1.2v-.2Z"/><path class="cls-17" d="M41.32,236.37c.29,2.39,.63,4.81,1.02,7.17l1.18-.19c-.38-2.35-.72-4.75-1.01-7.13l-1.19,.14Z"/><path class="cls-17" d="M41.75,200.29c.19-2.39,.43-4.8,.7-7.17l-1.19-.14c-.28,2.38-.52,4.81-.71,7.21l1.2,.09h0Z"/><path class="cls-17" d="M80.6,328.37c1.52,1.86,3.1,3.71,4.7,5.52l.9-.8c-1.59-1.79-3.16-3.63-4.67-5.48l-.93,.76Z"/><path class="cls-17" d="M177.03,389.32c2.33,.57,4.71,1.1,7.07,1.58l.24-1.18c-2.35-.47-4.71-1-7.03-1.57l-.29,1.17Z"/><path class="cls-17" d="M169.64,41.62l.33,1.15c2.29-.67,4.63-1.29,6.95-1.87l-.29-1.16c-2.34,.58-4.69,1.21-7,1.88Z"/><path class="cls-17" d="M183.71,38.14l.24,1.18h0c2.34-.48,4.72-.91,7.08-1.3l-.19-1.18c-2.38,.39-4.77,.83-7.13,1.31Z"/><path class="cls-17" d="M191.23,392.2c2.37,.38,4.78,.71,7.18,1l.14-1.18c-2.38-.29-4.77-.62-7.13-1l-.19,1.18Z"/><path class="cls-17" d="M163.1,385.3c2.28,.76,4.61,1.48,6.92,2.15l.33-1.15c-2.3-.66-4.61-1.38-6.88-2.14l-.38,1.14Z"/><path class="cls-17" d="M100.67,349.24c1.8,1.6,3.66,3.18,5.52,4.7l.76-.93c-1.85-1.51-3.7-3.08-5.49-4.67l-.8,.9Z"/><path class="cls-17" d="M111.9,358.42c1.92,1.44,3.9,2.87,5.88,4.24l.68-.99c-1.97-1.36-3.94-2.78-5.84-4.22l-.72,.96Z"/><path class="cls-17" d="M91.08,338.37l-.87,.83c1.67,1.74,3.39,3.46,5.13,5.12l.83-.87c-1.72-1.65-3.43-3.36-5.09-5.09Z"/><path class="cls-17" d="M149.51,380.15c2.22,.95,4.49,1.86,6.74,2.71l.43-1.12c-2.24-.85-4.49-1.75-6.7-2.69l-.47,1.1Z"/><path class="cls-17" d="M136.39,373.93c2.13,1.12,4.32,2.21,6.5,3.25l.51-1.09c-2.17-1.02-4.33-2.11-6.45-3.22l-.56,1.06Z"/><path class="cls-17" d="M123.83,366.66c2.03,1.28,4.12,2.55,6.21,3.76l.6-1.04c-2.08-1.2-4.15-2.46-6.17-3.73l-.64,1.01Z"/><path class="cls-17" d="M43.64,250.67c.48,2.36,1.02,4.73,1.59,7.07l1.17-.29c-.57-2.32-1.1-4.68-1.58-7.02l-1.18,.24Z"/><path class="cls-17" d="M118.29,67.41c1.96-1.36,3.98-2.7,5.99-3.98l-.64-1.01c-2.02,1.28-4.05,2.63-6.03,4l.68,.99h0Z"/><path class="cls-17" d="M43.46,186c.38-2.36,.81-4.74,1.28-7.08l-1.18-.24c-.48,2.36-.91,4.76-1.29,7.13l1.19,.19h0Z"/><path class="cls-17" d="M90.95,90.72l-.87-.83c-1.67,1.74-3.32,3.53-4.91,5.33l.9,.8c1.58-1.79,3.22-3.57,4.88-5.3Z"/><polygon class="cls-17" points="96.04 85.63 96.04 85.63 96.04 85.63 96.04 85.63"/><path class="cls-17" d="M136.71,56.22l-.56-1.06c-2.13,1.12-4.25,2.3-6.33,3.5l.6,1.04c2.06-1.19,4.18-2.36,6.29-3.48Z"/><path class="cls-17" d="M101.33,80.75l-.8-.9c-1.8,1.6-3.59,3.25-5.32,4.92l.83,.86c1.72-1.65,3.5-3.3,5.29-4.88Z"/><path class="cls-17" d="M398.66,192.39c-.29-2.38-.64-4.8-1.02-7.17l-1.18,.19c.39,2.36,.73,4.76,1.02,7.13l1.19-.15Z"/><path class="cls-17" d="M398.64,206.88l1.2-.05c-.1-2.4-.25-4.83-.45-7.23l-1.2,.1c.2,2.39,.34,4.8,.44,7.19Z"/><path class="cls-17" d="M163.1,44.92l-.38-1.14c-2.28,.77-4.58,1.59-6.82,2.44l.43,1.12c2.23-.85,4.51-1.67,6.78-2.43Z"/><path class="cls-17" d="M143.13,53c2.15-1.02,4.35-2.02,6.54-2.96l-.47-1.1c-2.21,.95-4.42,1.95-6.59,2.98l.52,1.08h0Z"/><path class="cls-17" d="M106.8,76.07c1.85-1.51,3.75-3.01,5.66-4.44l-.72-.96c-1.92,1.45-3.83,2.95-5.69,4.48l.76,.93h0Z"/><polygon class="cls-17" points="55.4 144.55 55.39 144.55 55.39 144.55 55.4 144.55"/><path class="cls-17" d="M58.36,137.97l-1.08-.51c-1.03,2.18-2.03,4.41-2.98,6.62l1.09,.47c.94-2.2,1.93-4.41,2.97-6.58Z"/><path class="cls-17" d="M46.3,171.89c.57-2.32,1.19-4.66,1.85-6.95l-1.15-.33c-.66,2.31-1.29,4.66-1.86,7l1.17,.29h0Z"/><path class="cls-17" d="M52.7,151.25l-1.12-.42c-.85,2.26-1.67,4.56-2.43,6.85l1.14,.38c.75-2.27,1.56-4.56,2.41-6.8Z"/><polygon class="cls-17" points="61.58 131.52 61.57 131.52 61.57 131.52 61.58 131.52"/><polygon class="cls-17" points="86.07 96.02 86.07 96.02 86.07 96.02 86.07 96.02"/><path class="cls-17" d="M81.41,101.51l-.93-.76c-1.52,1.86-3.02,3.78-4.47,5.71l.96,.72c1.44-1.91,2.93-3.82,4.45-5.67Z"/><path class="cls-17" d="M65.05,125.2l-1.04-.6c-1.2,2.09-2.38,4.23-3.5,6.36l1.06,.55c1.11-2.12,2.28-4.24,3.48-6.31Z"/><polygon class="cls-17" points="76.97 107.18 76.97 107.17 76.96 107.18 76.97 107.18"/><path class="cls-17" d="M72.76,113.02l-.99-.68c-1.37,1.98-2.71,4.02-4,6.05l1.01,.64c1.28-2.02,2.61-4.04,3.98-6.01Z"/><polygon class="cls-17" points="68.78 119.03 68.78 119.03 68.78 119.04 68.78 119.03"/><path class="cls-17" d="M363.76,106.13l-.96,.72c1.44,1.9,2.86,3.86,4.22,5.83l.98-.68c-1.37-1.97-2.8-3.95-4.25-5.87Z"/><path class="cls-17" d="M367.14,316.09l.99,.68h0c1.37-1.98,2.72-4.01,4.01-6.05l-1.01-.64c-1.28,2.01-2.62,4.04-3.98,6.01Z"/><path class="cls-17" d="M372.01,118.02l-1.01,.64c1.28,2.01,2.54,4.08,3.73,6.14l1.04-.6c-1.21-2.08-2.47-4.16-3.76-6.18Z"/><path class="cls-17" d="M379.28,130.54l-1.06,.56c1.11,2.11,2.2,4.27,3.23,6.42l1.08-.52c-1.03-2.16-2.13-4.34-3.25-6.46Z"/><path class="cls-17" d="M374.85,303.92l1.04,.6h0c1.21-2.09,2.4-4.22,3.5-6.35l-1.06-.56c-1.11,2.11-2.29,4.24-3.48,6.31Z"/><path class="cls-17" d="M354.57,94.93l-.9,.8c1.59,1.79,3.16,3.63,4.67,5.47l.93-.76c-1.52-1.86-3.1-3.71-4.7-5.51Z"/><path class="cls-17" d="M362.92,321.94c-1.44,1.91-2.93,3.81-4.45,5.67l.93,.76h0c1.53-1.87,3.03-3.79,4.48-5.7l-.96-.72Z"/><path class="cls-17" d="M343.81,343.46c-1.72,1.65-3.5,3.3-5.29,4.88l.8,.9c1.8-1.59,3.59-3.25,5.32-4.91l-.83-.87Z"/><path class="cls-17" d="M344.51,84.49l-.83,.87c1.72,1.65,3.44,3.36,5.1,5.08l.86-.83c-1.67-1.73-3.4-3.46-5.13-5.12Z"/><path class="cls-17" d="M381.57,291.16l1.08,.52h0c1.04-2.18,2.04-4.4,2.98-6.62l-1.1-.47c-.94,2.2-1.94,4.42-2.97,6.58Z"/><path class="cls-17" d="M348.91,338.37l.86,.83h0c1.66-1.73,3.32-3.52,4.92-5.32l-.9-.8c-1.59,1.79-3.23,3.57-4.88,5.29Z"/><polygon class="cls-17" points="396.4 250.48 396.4 250.48 396.4 250.48 396.4 250.48"/><polygon class="cls-17" points="339.32 349.24 339.32 349.24 339.32 349.24 339.32 349.24"/><path class="cls-17" d="M396.51,243.16c-.38,2.36-.81,4.74-1.29,7.08l1.17,.24c.48-2.35,.92-4.75,1.3-7.13l-1.19-.19Z"/><path class="cls-17" d="M398.23,228.86c-.19,2.38-.43,4.79-.71,7.16l1.19,.14c.29-2.39,.53-4.82,.72-7.21l-1.2-.1Z"/><path class="cls-17" d="M398.8,214.08v.4c0,2.39-.05,4.81-.14,7.2l1.2,.05h0c.1-2.41,.14-4.84,.14-7.25v-.39h-1.2Z"/><path class="cls-17" d="M394.72,171.02l-1.16,.29c.57,2.31,1.11,4.68,1.59,7.02l1.17-.24c-.48-2.36-1.02-4.74-1.6-7.07Z"/><path class="cls-17" d="M387.23,277.89l1.12,.42h0c.86-2.26,1.68-4.56,2.44-6.85l-1.14-.38c-.76,2.27-1.57,4.56-2.42,6.8Z"/><path class="cls-17" d="M385.5,143.59l-1.1,.47c.94,2.18,1.85,4.42,2.7,6.65l1.11-.43c-.86-2.25-1.77-4.5-2.71-6.7Z"/><path class="cls-17" d="M390.67,157.11l-1.14,.38c.76,2.27,1.49,4.58,2.15,6.87l1.15-.33c-.67-2.31-1.4-4.63-2.17-6.92Z"/><path class="cls-17" d="M393.65,257.26c-.57,2.33-1.2,4.67-1.86,6.95l1.15,.33h0c.67-2.3,1.3-4.66,1.87-7l-1.17-.29Z"/><path class="cls-17" d="M212.5,35.83h0c2.38-.09,4.81-.14,7.2-.15v-1.2c-2.41,0-4.85,.05-7.25,.15l.05,1.2Z"/><path class="cls-17" d="M241.25,36.92c2.37,.28,4.77,.61,7.13,.99l.19-1.18c-2.38-.38-4.79-.72-7.18-1l-.14,1.19Z"/><path class="cls-17" d="M269.45,42.61c2.3,.66,4.61,1.38,6.88,2.13l.38-1.14c-2.28-.76-4.61-1.48-6.92-2.14l-.33,1.15Z"/><path class="cls-17" d="M262.88,388.11l.29,1.16h0c2.34-.58,4.69-1.21,7-1.87l-.33-1.15c-2.29,.66-4.63,1.29-6.95,1.86Z"/><path class="cls-17" d="M241.64,391.98c-2.37,.29-4.78,.53-7.16,.72l.1,1.2c2.4-.19,4.82-.44,7.21-.72l-.14-1.19Z"/><path class="cls-17" d="M255.47,39.2c2.35,.47,4.71,1,7.03,1.56l.29-1.17c-2.33-.57-4.71-1.1-7.08-1.57l-.24,1.18Z"/><path class="cls-17" d="M248.78,390.98l.19,1.18h0c2.37-.38,4.77-.82,7.13-1.3l-.24-1.17c-2.35,.48-4.73,.91-7.08,1.29Z"/><path class="cls-17" d="M205.62,393.91c2.4,.19,4.83,.33,7.23,.43l.05-1.2c-2.39-.09-4.8-.23-7.19-.42l-.09,1.2Z"/><path class="cls-17" d="M333.66,74.89l-.76,.93c1.85,1.51,3.7,3.08,5.49,4.66l.79-.9c-1.81-1.59-3.67-3.17-5.53-4.69Z"/><polygon class="cls-17" points="234.58 393.9 234.58 393.89 234.58 393.89 234.58 393.9"/><path class="cls-17" d="M226.9,35.8c2.39,.09,4.81,.23,7.19,.42l.09-1.2c-2.39-.19-4.83-.33-7.24-.42l-.05,1.2Z"/><path class="cls-17" d="M220.1,393.28v1.2c2.4,0,4.84-.05,7.25-.15l-.05-1.2c-2.39,.1-4.81,.15-7.2,.15Z"/><path class="cls-17" d="M315.56,365.63l.64,1.01h0c2.02-1.28,4.06-2.63,6.04-4l-.68-.99c-1.97,1.36-3.99,2.7-6,3.97Z"/><path class="cls-17" d="M276.71,384.1l.38,1.14h0c2.28-.76,4.58-1.58,6.83-2.44l-.43-1.12c-2.23,.85-4.51,1.66-6.78,2.42Z"/><path class="cls-17" d="M333.05,353.01c-1.85,1.52-3.76,3.01-5.66,4.44l.72,.96c1.91-1.44,3.83-2.94,5.7-4.47l-.76-.93Z"/><path class="cls-17" d="M309.79,58.44l-.6,1.04c2.07,1.19,4.15,2.45,6.17,3.73l.64-1.01c-2.04-1.29-4.13-2.55-6.21-3.75Z"/><polygon class="cls-17" points="328.11 358.41 328.11 358.41 328.11 358.41 328.11 358.41"/><path class="cls-17" d="M322.06,66.19l-.68,.99c1.97,1.35,3.93,2.77,5.85,4.21l.72-.96c-1.93-1.45-3.91-2.87-5.89-4.24Z"/><path class="cls-17" d="M283.56,46.02l-.42,1.12c2.24,.85,4.49,1.75,6.7,2.68l.47-1.11c-2.22-.94-4.49-1.85-6.74-2.7Z"/><path class="cls-17" d="M290.15,379l.47,1.1h0c2.21-.94,4.43-1.94,6.59-2.97l-.52-1.08c-2.15,1.02-4.35,2.02-6.55,2.95Z"/><path class="cls-17" d="M296.93,51.7l-.51,1.09c2.16,1.02,4.34,2.11,6.46,3.22l.56-1.06c-2.13-1.12-4.32-2.21-6.5-3.24Z"/><path class="cls-17" d="M303.11,372.83l.56,1.06h0c2.13-1.12,4.26-2.3,6.33-3.5l-.6-1.04c-2.06,1.19-4.18,2.36-6.29,3.47Z"/><path class="cls-17" d="M189.05,71.02c-.84-.01-1.53-.67-1.58-1.51v-13.96c.04-.88,.78-1.57,1.66-1.54h61.75c.87-.03,1.6,.65,1.64,1.51v13.96c-.04,.88-.77,1.56-1.65,1.54h-61.76s-.04,0-.06,0Zm.04-15.6c-.08,0-.15,.07-.16,.15v13.91c.02,.08,.09,.13,.17,.12h61.79c.09,0,.18-.06,.19-.15v-13.91c-.02-.07-.09-.13-.17-.12h-61.82Z"/><path class="cls-16" d="M189.05,44.02c-.84-.01-1.53-.67-1.58-1.51v-13.96c.04-.88,.78-1.57,1.66-1.54h61.75c.87-.02,1.6,.65,1.64,1.51v13.96c-.03,.88-.77,1.57-1.65,1.54h-61.76s-.04,0-.06,0Z"/><path class="cls-4" d="M189.05,17.02c-.84-.01-1.53-.67-1.58-1.51V1.54c.04-.88,.78-1.57,1.66-1.54h61.75c.87-.02,1.59,.65,1.64,1.51V15.47c-.04,.88-.77,1.56-1.65,1.54h-61.76s-.04,0-.06,0Z"/><g id="b9b363af-5303-4c18-a23e-df3b65209469"><rect id="e3de4c85-d1c1-42fe-a42c-c18acdd2814e" class="cls-15" y="166.48" width="80" height="96"/><rect id="fe265eb4-d8ad-4188-b40e-9412ee773139" class="cls-12" x="2.3" y="169.43" width="75.15" height="90.17"/><rect id="e738187c-325b-4068-9a87-7b14c6a5a06e" class="cls-15" x="8.51" y="184.51" width="30.06" height="3.76"/><rect id="b4667f7c-6534-4bc0-a7af-c9425a83f984" class="cls-4" x="8.51" y="197.29" width="45.49" height="3.76"/><rect id="bfd14e20-c4b4-4975-b104-b5d7b17119c2" class="cls-15" x="8.51" y="210.06" width="27.4" height="3.76"/><rect id="aefc8445-277c-4a0d-9a38-15f1d129f2f6" class="cls-4" x="8.51" y="222.84" width="57.18" height="3.76"/><rect id="b28680f7-0f2a-4f1c-a56c-8b8834e2a932" class="cls-15" x="8.51" y="235.61" width="57.18" height="3.76"/></g><g id="ed001692-4e2b-40c0-8dd4-0752cad6d5fa"><path id="e8f8166f-e1bc-41da-9765-0616df81a660-427" class="cls-15" d="M161.89,359.98c-.64,0-1.16,.52-1.16,1.16v66.68c0,.64,.52,1.16,1.16,1.16h132.21c.64,0,1.16-.52,1.16-1.16v-66.68c0-.64-.52-1.16-1.16-1.16H161.89Z"/><path id="ab70177d-851a-4034-849b-dc5f8bdfad9b-428" class="cls-12" d="M163.75,361.83c-.64,0-1.16,.52-1.16,1.16v62.98c0,.64,.52,1.16,1.16,1.16h128.51c.64,0,1.16-.52,1.16-1.16v-62.98c0-.64-.52-1.16-1.16-1.16H163.75Z"/><path id="a6de2725-ae37-49ee-b007-49636fd70c7e-429" class="cls-14" d="M202.3,402.35h-27.32c-.89,0-1.62-.73-1.62-1.62v-27.32c0-.89,.73-1.62,1.62-1.62h27.32c.89,0,1.62,.73,1.62,1.62v27.32c0,.89-.73,1.62-1.62,1.62Zm-27.32-30.1c-.64,0-1.16,.52-1.16,1.16v27.32c0,.64,.52,1.16,1.16,1.16h27.32c.64,0,1.16-.52,1.16-1.16v-27.32c0-.64-.52-1.16-1.16-1.16h-27.32Z"/><path id="a19aa1f8-ee50-4a31-b5b0-1f46abbb6fa5-430" class="cls-15" d="M241.66,402.35h-27.32c-.89,0-1.62-.73-1.62-1.62v-27.32c0-.89,.73-1.62,1.62-1.62h27.32c.89,0,1.62,.73,1.62,1.62v27.32c0,.89-.73,1.62-1.62,1.62Zm-27.32-30.1c-.64,0-1.16,.52-1.16,1.16v27.32c0,.64,.52,1.16,1.16,1.16h27.32c.64,0,1.16-.52,1.16-1.16v-27.32c0-.64-.52-1.16-1.16-1.16h-27.32Z"/><path id="a2e99a8c-7c3e-4a46-b050-978645415aa0-431" class="cls-15" d="M216.42,374.33c-.64,0-1.16,.52-1.16,1.16v23.15c0,.64,.52,1.16,1.16,1.16h23.16c.64,0,1.16-.52,1.16-1.16v-23.15c0-.64-.52-1.16-1.16-1.16h-23.16Z"/><path id="a1a7701c-a4b3-45f7-ba82-ecc014cc0ab0-432" class="cls-14" d="M177.18,374.33c-.64,0-1.16,.52-1.16,1.16v23.15c0,.64,.52,1.16,1.16,1.16h23.15c.64,0,1.16-.52,1.16-1.16v-23.15c0-.64-.52-1.16-1.16-1.16h-23.15Z"/><path id="b42d7989-02f3-4c84-ad2b-8e00dd2df745-433" class="cls-4" d="M255.67,374.33c-.64,0-1.16,.52-1.16,1.16v23.15c0,.64,.52,1.16,1.16,1.16h23.16c.64,0,1.16-.52,1.16-1.16v-23.15c0-.64-.52-1.16-1.16-1.16h-23.15Z"/><path id="f813e1b9-be7f-44e3-b624-f228ad519824-434" class="cls-4" d="M281.02,402.35h-27.32c-.89,0-1.62-.73-1.62-1.62v-27.32c0-.89,.73-1.62,1.62-1.62h27.32c.89,0,1.62,.73,1.62,1.62v27.32c0,.9-.73,1.62-1.62,1.62h0Zm-27.32-30.1c-.64,0-1.16,.52-1.16,1.16v27.32c0,.64,.52,1.16,1.16,1.16h27.32c.64,0,1.16-.52,1.16-1.16v-27.32c0-.64-.52-1.16-1.16-1.16h-27.32Z"/><circle id="a256ee75-ac51-43d7-97e2-3db24c3be389" class="cls-10" cx="217" cy="411.15" r="3.94"/><circle id="aa825252-37aa-41e2-9a2c-ccbee99d2ef1" class="cls-6" cx="239.23" cy="411.15" r="3.94"/><circle id="e2e0d947-3ebc-480d-8987-97d04e023704" class="cls-7" cx="228.12" cy="411.15" r="3.94"/><circle id="a24995dc-8888-4773-9a89-b4343b8ccc71" class="cls-8" cx="177.64" cy="411.15" r="3.94"/><circle id="b46cd29b-6d35-4cd2-afa1-c57a3756ab6b" class="cls-9" cx="199.87" cy="411.15" r="3.94"/><circle id="f601e6e7-677d-43cb-b027-d603cd29d25a" class="cls-11" cx="188.75" cy="411.15" r="3.94"/><circle id="a77d708d-bca5-43b2-b23e-dc16f9e9193a" class="cls-2" cx="256.36" cy="411.15" r="3.94"/><circle id="e63dac9c-0d6c-4c6c-9542-a36cc92b4df6" class="cls-3" cx="278.59" cy="411.15" r="3.94"/><circle id="a1090fae-2383-417d-8f76-05f45bb8b5bf" class="cls-5" cx="267.48" cy="411.15" r="3.94"/></g><circle id="a3d5bffd-d54f-4a9c-b6b3-ef1fd30503af" class="cls-4" cx="400" cy="214.48" r="20"/><path id="b8d1c3cf-0786-4fd7-9dbb-a868aee65219-435" class="cls-12" d="M406.28,212.76h-4.57v-4.57c0-.95-.77-1.72-1.71-1.72-.95,0-1.72,.77-1.72,1.71h0v4.58h-4.57c-.95,0-1.71,.78-1.71,1.72,0,.94,.77,1.7,1.71,1.71h4.57v4.57c0,.95,.77,1.71,1.72,1.71,.94,0,1.71-.77,1.71-1.71v-4.57h4.57c.95,0,1.71-.78,1.71-1.72,0-.94-.77-1.7-1.71-1.71h0Z"/><path id="f09e6b73-ec44-4a81-9472-b9971c159185-436" class="cls-15" d="M744,589.13H1c-.55,0-1-.45-1-1s.45-1,1-1H744c.55,0,1,.45,1,1s-.45,1-1,1Z"/><path id="aa6a1b03-01bc-43f9-8d1d-1f66ad434225-437" class="cls-18" d="M622.12,366.37c3.76-4.59,3.09-11.36-1.5-15.12-.49-.4-1.01-.76-1.56-1.07l-23.22-95.05-16.94,5.41,25.08,94.4c-2.56,5.39-.28,11.83,5.11,14.39,4.51,2.15,9.91,.92,13.05-2.97h0Z"/><path id="a6949b1a-5963-4d38-a458-8dd742dc2d45-438" class="cls-14" d="M610.12,305.57l-12.38,10.68-17.32,14.93-7.65-39.14-.8-4.07-.63-3.23,17.55-30.57,14.63,.84,1,.06,.02,.22,.23,2.05,3,26.98,.07,.65,2.28,20.6Z"/><path id="a122a32d-00ec-400b-9b5e-b1ad39aba6d6-439" class="cls-18" d="M529.2,575.25h-12.26l-5.83-47.29h18.09v47.29Z"/><path id="b2b65556-0eff-4e5d-9831-8f0a24808bed-440" class="cls-1" d="M532.33,571.25h-24.15c-8.5,0-15.39,6.89-15.39,15.39v.5h39.53v-15.89Z"/><path id="ab238a02-974c-41f5-a546-432b685672c0-441" class="cls-18" d="M657.2,574.25h-12.26l-5.83-47.29h18.09v47.29Z"/><path id="fbf45d8a-abbd-48fe-bb2c-575d0dc00298-442" class="cls-1" d="M660.33,570.25h-24.15c-8.5,0-15.38,6.89-15.39,15.39v.5h39.53v-15.89Z"/><path id="e52923a3-9b64-4dc0-8091-79e47d0c746f-443" class="cls-14" d="M667,553.42l-33,5-48.01-162.48-50.99,163.48-37-5,48-190v-15l6.5-22.5-.68-6.09-4.73-42.59-2.05-18.47-.13-1.19c-.23-2.07,1.15-3.99,3.19-4.42h0l15.4-3.24h25.17l14.85,4.09,1.02,.28,.46,.13-.23,1.92-3.48,29.18-.19,1.6-3.36,28.13-.74,6.17c29,21,30,42,30,42l40,189Z"/><circle id="fabcab18-9703-4a51-95d8-135fdfe0b420" class="cls-18" cx="573.04" cy="213.71" r="24.56"/><rect id="a4f5ffd7-3fc9-4668-bda7-a07509dd6690" class="cls-13" x="550.5" y="319.92" width="49" height="7" transform="translate(-37.09 77.3) rotate(-7.45)"/><path id="ac9b6f70-0563-41e5-b87b-91f360a30f5e-444" class="cls-18" d="M485.08,325.23c.46,.3,.9,.64,1.32,1.01l48.06-12.25,3.28-11.59,18.14,2.66-3.81,21.09c-.63,3.5-3.5,6.16-7.03,6.53l-56.11,5.91c-2.49,5.24-8.75,7.47-13.99,4.98-5.24-2.49-7.47-8.75-4.98-13.99,2.49-5.24,8.75-7.47,13.99-4.98,.39,.19,.78,.4,1.14,.63h0Z"/><path id="eb4c7a3a-cef4-420f-9f99-9f4d4435814b-445" class="cls-14" d="M559,260.42l-8.5-6.5c-2.3-.87-5.45,1.61-6,4l-12,49,25,18,3.5-5.5-2-59Z"/><path id="e3fe0647-b177-4f4a-abe6-a260452e1a64-446" class="cls-1" d="M551.94,207.8l1.34-2.15c6.81-1.36,13.74,1.76,17.24,7.76,.84-3.11,5.85-2.95,7.71-.32s1.44,6.19,.84,9.35-1.28,6.6,.18,9.47c1.59,2.73,4.51,4.39,7.67,4.36,3.11-.08,6.13-1.04,8.71-2.77,9.68-6.16,14.97-17.34,13.59-28.74-.63-4.35-2.24-8.5-4.72-12.12,1.42-.11,2.75-.75,3.71-1.8,1.36-1.77,1.61-4.15,.65-6.17-.82-1.73-2.08-3.22-3.64-4.32,1.12,.9,2.44,1.51,3.85,1.8,1.73,.25,3.76-.65,4.07-2.32,.3-1.59-.97-3.04-2.15-4.2l-2.29-2.27c.4-.45,.76-.92,1.1-1.41,2.6-3.64,2.83-8.48,.57-12.34,2.18,3.73,.27,8.17-3.58,11.2-.12,.1-.26,.18-.39,.28l-1.46-1.45c-1.14-1.3-2.54-2.34-4.11-3.07-1.62-.62-3.68-.44-4.73,.88-1.13,1.41-.81,3.65-2.13,4.88-1.16,1.08-3.04,.9-4.59,.45s-3.16-1.13-4.73-.78c-2.19,.65-3.53,2.85-3.11,5.09,.18,.93,.57,1.81,1.15,2.57-4.35-.37-8.72-.38-13.07-.04-5.12,.29-10.35,.64-15.07,2.64s-8.92,5.97-9.79,11.02,2.08,14.09,7.19,14.54Z"/><g id="a936e062-b340-40f1-9691-dd1057d044d0"><path id="b857b5d0-4f62-4c06-bd0c-c175361348e0-447" class="cls-15" d="M54.76,560.71c4.22,1.48,8.91,.66,12.36-2.18,4.33-3.64,5.69-9.62,6.79-15.17l3.27-16.4-6.84,4.71c-4.92,3.39-9.95,6.88-13.36,11.79s-4.89,11.6-2.16,16.91"/><path id="ec5e1437-a52d-4082-8bff-cbc88a1edb97-448" class="cls-19" d="M55.82,581.7c-.86-6.27-1.75-12.63-1.14-18.97,.39-5.65,2.39-11.08,5.75-15.64,1.86-2.39,4.12-4.44,6.67-6.05,.67-.42,1.28,.64,.62,1.06-4.43,2.8-7.86,6.93-9.78,11.8-2.13,5.42-2.47,11.32-2.11,17.08,.22,3.48,.69,6.94,1.17,10.39,.08,.32-.11,.65-.43,.75-.33,.09-.66-.1-.75-.43h0Z"/><path id="a99bc2f1-681d-4a68-a4d2-93773de40ca8-449" class="cls-15" d="M62.01,571.64c1.81,2.75,4.92,4.36,8.21,4.24,4.16-.2,7.62-3.1,10.74-5.85l9.23-8.15-6.11-.29c-4.39-.21-8.9-.41-13.08,.95s-8.04,4.61-8.81,8.94"/><path id="ae78d226-4bc9-4363-a654-932dfc4891c6-450" class="cls-19" d="M53.38,585.31c4.14-7.34,8.95-15.49,17.54-18.09,2.39-.72,4.89-.98,7.38-.76,.78,.07,.59,1.28-.19,1.21-4.17-.35-8.33,.75-11.78,3.12-3.24,2.35-5.99,5.32-8.09,8.73-1.34,2.04-2.54,4.17-3.74,6.29-.38,.68-1.51,.19-1.12-.5Z"/></g><g><path d="M499.13,63.81h-12.52v10.48h-4.43v-10.48h-12.34v-3.66h29.29v3.66Zm-14.73-20.5c6.87,.02,11.67,2.83,11.67,7.28s-4.8,7.14-11.67,7.14-11.62-2.79-11.6-7.14c-.02-4.45,4.73-7.26,11.6-7.28Zm0,10.86c4.32-.02,7.03-1.3,7.03-3.59s-2.71-3.67-7.03-3.69c-4.29,.02-7.01,1.32-7,3.69-.02,2.29,2.71,3.57,7,3.59Z"/><path d="M502.68,44.93h15.22v12.34h-10.55v5.87c4.89-.04,9.02-.28,13.71-1.05l.39,3.62c-5.26,.93-10.02,1.12-15.86,1.12h-2.88v-13.11h10.62v-5.17h-10.65v-3.62Zm25.14,29.39h-4.46V42.26h4.46v32.06Z"/><path d="M548.7,65.13v-2.71c-3.5-.63-5.78-2.81-5.77-5.82-.02-3.57,3.23-6.01,7.95-6.01s8.05,2.44,8.05,6.01c0,2.99-2.29,5.17-5.8,5.82v2.55c2.69-.12,5.38-.33,7.95-.67l.32,3.3c-7.01,1.21-14.55,1.28-20.25,1.27l-.6-3.66c2.44-.02,5.24-.02,8.16-.09Zm-7.52-19.32h7.52v-3.41h4.46v3.41h7.45v3.52h-19.44v-3.52Zm9.7,13.39c2.25,0,3.76-.91,3.76-2.6s-1.51-2.58-3.76-2.6c-2.18,.02-3.71,.95-3.69,2.6-.02,1.69,1.51,2.6,3.69,2.6Zm16.42,15.05h-4.46v-31.99h4.46v31.99Z"/><path d="M590.85,63.49l-2.71,3.59c-3.43-1.71-5.75-4.87-7.07-8.72-1.41,4.13-3.87,7.52-7.49,9.32l-2.78-3.62c5.43-2.5,7.98-8.61,7.98-14.55v-4.78h4.5v4.78c-.02,5.73,2.43,11.51,7.56,13.99Zm1.41-21.23h4.5v12.34h4.71v3.8h-4.71v15.86h-4.5v-31.99Z"/><path d="M609.87,44.54c3.85-.02,6.49,3.59,6.98,9.56h2.62v-11.39h4.22v30.06h-4.22v-15.12h-2.58c-.39,6.28-3.08,10.09-7.01,10.09-4.24,0-6.96-4.45-6.96-11.64s2.72-11.58,6.96-11.57Zm0,18.88c1.85,.04,2.94-2.39,2.92-7.31,.02-4.9-1.07-7.35-2.92-7.35s-2.85,2.44-2.81,7.35c-.04,4.92,1.02,7.35,2.81,7.31Zm20.5,10.83h-4.29v-31.99h4.29v31.99Z"/><path d="M653.6,63.67l-2.74,3.59c-3.55-1.72-5.94-4.92-7.28-8.88-1.37,4.2-3.83,7.65-7.49,9.44l-2.81-3.66c5.48-2.48,7.98-8.65,8.02-14.66v-4.78h4.54v4.78c.02,6.01,2.44,11.87,7.77,14.17Zm-3.59-11.36h6.29v-10.05h4.43v32.06h-4.43v-18.39h-6.29v-3.62Z"/><path d="M664.82,57.94h29.29v3.52h-29.29v-3.52Zm3.38,6.12h4.5v5.91h18.35v3.59h-22.85v-9.49Zm22.64-9.56h-22.36v-11.11h4.46v7.59h17.89v3.52Z"/><path d="M705.46,45.56h9.98c5.78,0,9.11,3.25,9.11,8.3,0,3.48-1.6,6.01-4.5,7.26l5.41,9.9h-5.84l-4.87-9.04h-4.03v9.04h-5.27v-25.45Zm9,12.13c3.13,0,4.66-1.28,4.64-3.83,.02-2.57-1.51-3.96-4.64-3.97h-3.73v7.8h3.73Z"/><path d="M728.21,45.56h9.98c5.78,0,9.11,3.57,9.11,8.58s-3.38,8.58-9.25,8.58h-4.57v8.3h-5.27v-25.45Zm9,12.9c3.13,0,4.66-1.76,4.64-4.32,.02-2.53-1.51-4.24-4.64-4.25h-3.73v8.58h3.73Z"/><path d="M746.26,71.02l8.82-25.45h6.79l8.79,25.45h-5.66l-1.92-5.87h-9.21l-1.92,5.87h-5.7Zm15.49-9.98l-3.18-9.74h-.18l-3.18,9.74h6.54Z"/><path d="M784.49,49.18h-10.67v-3.66h15.22c-.04,9.56-3.76,17.84-14.52,23.13l-2.53-3.45c7.58-3.8,11.65-8.89,12.5-16.03Zm13.1,5.34h4.54v3.69h-4.54v15.96h-4.5v-31.92h4.5v12.27Z"/><path d="M496.84,101.45h-4.46v-5.98h-5.36c-.88,3.38-4.11,5.61-8.21,5.59-4.89,.02-8.54-3.04-8.51-7.42-.04-4.27,3.62-7.29,8.51-7.28,4.1-.02,7.33,2.18,8.21,5.48h5.36v-6.4h4.46v16Zm-18.04-4.01c2.41,0,4.17-1.39,4.18-3.8-.02-2.27-1.78-3.67-4.18-3.66-2.5-.02-4.27,1.39-4.25,3.66-.02,2.41,1.76,3.8,4.25,3.8Zm-3.27,5.41h21.3v8.65h-16.77v2.07h17.72v3.52h-22.22v-8.89h16.8v-1.9h-16.84v-3.45Z"/><path d="M517.37,109.65h-15.36v-21.16h15.36v21.16Zm-4.46-3.55v-14.1h-6.47v14.1h6.47Zm8.82-20.64h4.5v12.06h4.71v3.73h-4.71v16.21h-4.5v-31.99Z"/><path d="M533.12,88.52h4.46v17.35c4.1-.07,8.49-.46,13.11-1.39l.46,3.73c-5.36,1.09-10.55,1.37-15.26,1.37h-2.78v-21.06Zm28.76,12.73h-4.54v16.14h-4.5v-31.92h4.5v12.13h4.54v3.66Z"/><path d="M589.97,90.8h-6.36c.02,3.76,2.3,7.65,7.35,9.32l-2.21,3.45c-3.53-1.11-5.98-3.43-7.37-6.29-1.42,3.18-3.97,5.75-7.75,6.96l-2.29-3.55c5.27-1.67,7.66-5.91,7.7-9.88h-6.43v-3.55h17.37v3.55Zm-13.46,15.12h21.97v11.53h-4.46v-7.95h-17.51v-3.59Zm12.55-12.76h4.96v-7.7h4.46v19.05h-4.46v-7.7h-4.96v-3.66Z"/><path d="M631.81,104.2h-29.18v-3.59h6.57v-3.83c-2.34-1.04-3.66-2.62-3.66-4.68,0-3.87,4.55-6.17,11.67-6.19,7.07,.02,11.62,2.32,11.64,6.19-.02,2.09-1.37,3.69-3.76,4.71v3.8h6.71v3.59Zm-14.62,1.69c6.91-.02,11.11,2.04,11.14,5.73-.04,3.78-4.24,5.8-11.14,5.8s-11.21-2.02-11.21-5.8,4.2-5.75,11.21-5.73Zm.04-11.14c4.46,.02,7-.88,7-2.64s-2.53-2.74-7-2.74-7.03,.95-7,2.74c-.04,1.76,2.48,2.65,7,2.64Zm-.04,19.34c4.34,0,6.63-.83,6.64-2.46-.02-1.58-2.3-2.34-6.64-2.36-4.43,.02-6.66,.77-6.64,2.36-.02,1.63,2.21,2.46,6.64,2.46Zm3.45-13.46v-2.69c-1.05,.14-2.2,.19-3.41,.19s-2.41-.07-3.48-.19v2.69h6.89Z"/><path d="M652.8,102.05h-6.22v5.26c2.64-.11,5.27-.28,7.77-.54l.35,3.27c-7,1.07-14.27,1.12-20.29,1.12l-.53-3.66c2.55,.02,5.33,.02,8.19-.05v-5.4h-6.08v-13.75h16.63v3.55h-12.16v6.61h12.34v3.59Zm3.38-16.59h4.46v32.06h-4.46v-32.06Z"/><path d="M673.78,87.11c4.04-.04,7.33,2.32,8.21,5.77h5.36v-7.42h4.46v17.93h-4.46v-6.86h-5.34c-.84,3.53-4.15,5.92-8.23,5.91-4.89,.02-8.54-3.2-8.54-7.7s3.66-7.66,8.54-7.63Zm6.8,25.89c2.64-1.93,3.71-4.75,3.74-7.12v-1.3h4.39v1.3c.02,3.34,1.76,6.5,6.12,7.84l-2.29,3.3c-3.04-1.05-5.01-3.04-6.12-5.52-1.05,2.46-2.94,4.64-5.84,5.8-2.94-1.09-4.82-3.18-5.87-5.68-1.14,2.39-3.11,4.32-6.01,5.4l-2.18-3.3c4.22-1.41,5.99-4.66,6.01-7.84v-1.3h4.36v1.3c-.02,2.62,1.05,5.31,3.67,7.12Zm-6.8-14.29c2.39,.02,4.17-1.53,4.18-3.97-.02-2.44-1.79-3.92-4.18-3.9-2.46-.02-4.25,1.46-4.22,3.9-.04,2.44,1.76,3.99,4.22,3.97Z"/><path d="M695.93,101.14h29.29v3.52h-29.29v-3.52Zm3.38,6.12h4.5v5.91h18.35v3.59h-22.85v-9.49Zm22.64-9.56h-22.36v-11.11h4.46v7.59h17.89v3.52Z"/><path d="M728.07,89.08h12.23v3.59h-7.84v13.94c3.41-.04,6.01-.23,9-.83l.35,3.66c-3.62,.72-6.84,.88-11.53,.88h-2.21v-21.23Zm10.05,8.05h5.73v-11.11h4.18v29.99h-4.18v-15.22h-5.73v-3.66Zm16.7,20.32h-4.32v-31.99h4.32v31.99Z"/><path d="M767.09,99.17c1.51-.98,2.69-2.07,2.67-3.69,.02-1.76-1.35-2.9-3.06-2.92-1.63,.02-3.16,1.11-3.23,3.16h-4.99c.09-4.94,3.76-7.31,8.26-7.31,4.9,0,8.37,2.55,8.37,6.89,0,2.9-1.49,4.73-3.8,6.12-1.99,1.18-2.87,2.32-2.88,4.78v.39h-4.64v-.39c.02-4.38,1.2-5.71,3.3-7.03Zm-.88,9.49c1.56-.02,2.92,1.3,2.92,2.92s-1.35,2.95-2.92,2.95c-1.65,0-2.99-1.32-2.95-2.95-.04-1.62,1.3-2.94,2.95-2.92Z"/></g></g></svg>