<?xml version="1.0" encoding="UTF-8"?><svg id="_이어_2" xmlns="http://www.w3.org/2000/svg" viewBox="0 0 811.76 620"><defs><style>.cls-1{fill:#2f2e41;}.cls-2{fill:#fff;}.cls-3{fill:#3f3d56;}.cls-4{fill:#121c72;}.cls-5{fill:#e6e6e6;}.cls-6{fill:#ffb8b8;}.cls-7{fill:#ccc;}.cls-8{fill:#f2f2f2;}</style></defs><g id="_이어_1-2"><path class="cls-8" d="M74.91,619.03l-.04,.25c-.04-.24-.09-.48-.13-.73-.08-.39-.14-.78-.2-1.17-2.44-15.35-1.1-31.05,3.91-45.76,.96-2.87,2.06-5.69,3.29-8.46,4.7-10.71,11.36-20.45,19.65-28.71,2.69-2.75,5.76-5.11,9.11-6.99,.49-.26,.99-.51,1.49-.74,3.1-1.51,6.6-2.01,10-1.45,1.24,.23,2.43,.63,3.56,1.2,.39,.19,.77,.4,1.15,.63,4.6,3.01,7.73,7.81,8.65,13.23,.65,4,.5,8.09-.43,12.03-.08,.38-.17,.75-.26,1.13-.66,2.63-1.49,5.21-2.49,7.73-9.97,25.65-31.39,48.41-57.25,57.82Z"/><path class="cls-2" d="M125.48,526.55c-7.78,11.18-15.13,22.64-22.04,34.38-6.91,11.73-13.37,23.72-19.37,35.96-3.36,6.85-6.57,13.76-9.64,20.75-.34,.77,.81,1.45,1.15,.66,5.48-12.47,11.42-24.72,17.82-36.75,6.4-12.02,13.26-23.78,20.56-35.29,4.09-6.44,8.31-12.79,12.67-19.05,.49-.7-.66-1.36-1.15-.66h0Z"/><path class="cls-2" d="M133.81,552.42c-5.85,7.6-14.45,12.58-23.95,13.88-2.65,.36-5.33,.41-7.99,.16-.85-.08-.86,1.25-.01,1.33,9.91,.83,19.74-2.27,27.37-8.65,2.14-1.79,4.06-3.82,5.73-6.05,.51-.68-.64-1.34-1.15-.66h0Z"/><path class="cls-2" d="M83.88,593.63c-1.36-1.94-2.49-4.02-3.36-6.22-2-5.01-2.71-10.44-2.07-15.8,.96-2.87,2.06-5.69,3.29-8.46,.15,.22,.17,.51,.06,.75-.87,2.08-1.49,4.24-1.85,6.46-1.32,7.91,.51,16.02,5.09,22.6,.12,.15,.15,.34,.09,.52-.16,.36-.59,.53-.95,.37-.11-.05-.21-.13-.29-.23Z"/><path class="cls-2" d="M110.7,526.62c-1.6,6.38-1.12,13.09,1.36,19.18,.18,.32,.59,.43,.9,.25,.31-.19,.42-.59,.25-.9-2.33-5.77-2.76-12.14-1.23-18.17,.08-.36-.14-.71-.49-.8-.34-.08-.68,.12-.79,.45h0Z"/><path class="cls-8" d="M74.75,587l.08,.24c-.15-.19-.3-.39-.45-.58-.25-.31-.49-.63-.72-.95-9.29-12.46-15.4-26.99-17.8-42.34-.48-2.99-.82-5.99-1.02-9.02-.81-11.67,.57-23.39,4.06-34.55,1.1-3.69,2.73-7.2,4.82-10.43,.32-.46,.64-.91,.98-1.35,2.05-2.77,4.91-4.85,8.18-5.93,1.2-.37,2.45-.57,3.71-.6,.44-.01,.87,0,1.31,.02,5.47,.53,10.47,3.32,13.8,7.7,2.43,3.24,4.2,6.93,5.2,10.86,.1,.37,.2,.74,.29,1.12,.63,2.63,1.1,5.31,1.39,8,3.09,27.34-5.31,57.45-23.84,77.8Z"/><path class="cls-2" d="M76.57,481.61c-1.7,13.51-2.88,27.07-3.55,40.69-.67,13.6-.82,27.21-.45,40.84,.21,7.62,.57,15.24,1.1,22.85,.06,.84,1.38,.91,1.33,.05-.94-13.59-1.37-27.19-1.29-40.82,.09-13.62,.69-27.22,1.82-40.8,.63-7.6,1.42-15.18,2.37-22.75,.11-.85-1.22-.9-1.33-.05h0Z"/><path class="cls-2" d="M95.96,500.65c-1.65,9.44-6.95,17.86-14.76,23.41-2.18,1.55-4.53,2.84-7.01,3.85-.79,.32-.18,1.5,.6,1.18,9.16-3.86,16.42-11.18,20.22-20.37,1.06-2.58,1.82-5.27,2.27-8.02,.14-.84-1.19-.89-1.33-.05h0Z"/><path class="cls-2" d="M70.89,560.34c-2.1-1.08-4.07-2.41-5.87-3.95-4.1-3.51-7.25-7.99-9.17-13.03-.48-2.99-.82-5.99-1.02-9.02,.24,.13,.39,.37,.4,.64,.2,2.24,.65,4.45,1.36,6.58,2.51,7.62,7.89,13.95,15.01,17.65,.17,.07,.29,.23,.32,.42,.03,.4-.28,.74-.67,.77-.12,0-.25-.02-.36-.07Z"/><path class="cls-2" d="M63.51,488.54c1.54,6.39,5.09,12.12,10.11,16.35,.31,.2,.72,.11,.92-.2,.19-.31,.1-.71-.2-.92-4.74-4.03-8.08-9.47-9.53-15.52-.09-.36-.45-.57-.81-.48-.34,.09-.55,.42-.49,.76h0Z"/><path class="cls-8" d="M75.32,619.2l.19,.15c-.23-.08-.46-.16-.69-.25-.38-.13-.75-.27-1.12-.41-14.53-5.49-27.51-14.45-37.8-26.09-2.02-2.26-3.92-4.61-5.71-7.05-6.97-9.39-12.12-20.01-15.18-31.3-1.06-3.7-1.58-7.53-1.55-11.38,.02-.56,.05-1.11,.1-1.66,.23-3.44,1.52-6.72,3.7-9.4,.81-.96,1.76-1.8,2.8-2.5,.36-.25,.73-.47,1.11-.69,4.9-2.5,10.61-2.84,15.78-.95,3.79,1.42,7.27,3.58,10.23,6.34,.29,.26,.57,.52,.85,.78,1.95,1.88,3.78,3.88,5.48,6,17.33,21.38,26.46,51.27,21.81,78.39Z"/><path class="cls-2" d="M20.1,529.41c5.85,12.3,12.16,24.36,18.92,36.2,6.76,11.82,13.97,23.37,21.61,34.66,4.28,6.31,8.69,12.53,13.23,18.66,.5,.68,1.65,.02,1.15-.67-8.11-10.94-15.8-22.17-23.07-33.7-7.26-11.52-14.07-23.31-20.45-35.36-3.56-6.74-6.98-13.56-10.26-20.45-.37-.77-1.51-.1-1.15,.67Z"/><path class="cls-2" d="M46.7,535.02c3.7,8.84,3.76,18.79,.17,27.68-1,2.48-2.28,4.84-3.83,7.02-.49,.7,.66,1.36,1.15,.67,5.64-8.19,7.82-18.27,6.06-28.05-.49-2.74-1.3-5.42-2.41-7.98-.34-.78-1.48-.11-1.15,.67h0Z"/><path class="cls-2" d="M57.72,598.81c-2.36,.22-4.73,.16-7.07-.16-5.34-.75-10.41-2.82-14.74-6.04-2.02-2.26-3.92-4.61-5.71-7.05,.27-.02,.53,.1,.68,.32,1.37,1.78,2.95,3.4,4.69,4.82,6.22,5.07,14.16,7.5,22.15,6.79,.19-.03,.37,.04,.49,.18,.24,.32,.17,.77-.15,1.01-.1,.07-.22,.12-.34,.13Z"/><path class="cls-2" d="M12.83,542.29c4.74,4.55,10.81,7.47,17.33,8.33,.36,.05,.66-.34,.66-.66,0-.36-.3-.65-.66-.66-6.17-.84-11.91-3.63-16.39-7.94-.61-.59-1.55,.34-.94,.94h0Z"/><path class="cls-6" d="M165.86,444.25c4.89-3.35,6.14-10.04,2.79-14.93-.36-.52-.76-1.01-1.2-1.46l4.17-93.02-21.22,2.38,1.23,90.98c-3.97,4.46-3.57,11.28,.89,15.25,3.73,3.32,9.25,3.65,13.34,.8Z"/><polygon class="cls-6" points="204.56 601.71 216.64 603.83 228.57 558.27 212.75 555.13 204.56 601.71"/><path class="cls-1" d="M237.95,619.14l-37.95-6.67h0l2.58-14.66h0l23.29,4.09c8.1,1.42,13.51,9.14,12.08,17.24h0Z"/><polygon class="cls-6" points="171.42 607.75 183.68 607.75 189.51 560.46 171.42 560.46 171.42 607.75"/><path class="cls-1" d="M207.33,619.13h-38.53v-14.89h23.64c8.22,0,14.89,6.66,14.89,14.89h0Z"/><path class="cls-1" d="M223.57,594.8c-.19,0-.38-.01-.57-.03l-14.43-1.19c-2.68-.31-4.59-2.74-4.28-5.42,0-.08,.02-.16,.03-.24l13.32-74.68-9-47.47c-.17-.88-1.02-1.46-1.9-1.29-.71,.14-1.25,.73-1.32,1.45l-11.26,126.63c-.26,2.64-2.56,4.6-5.21,4.44l-13.59-.51c-2.47-.17-4.41-2.16-4.54-4.63l-.91-151.77,70.48-8.81,4.92,76.04-.02,.08-16.99,83.67c-.53,2.19-2.49,3.73-4.74,3.73Z"/><circle class="cls-6" cx="193.16" cy="250" r="24.56"/><path class="cls-4" d="M216.3,451.18c-3.84,.02-7.61-1.05-10.86-3.11-11.9-7.44-25.41-4.48-32.41-2.06-1.41,.49-2.96,.32-4.22-.48-1.25-.78-2.06-2.09-2.22-3.55l-12.72-113.63c-2.13-19.04,9.34-36.94,27.27-42.56h0c.67-.21,1.36-.41,2.06-.6,11.3-3.06,23.37-.97,32.97,5.72,9.78,6.76,16.07,17.51,17.17,29.35l10.71,114.39c.15,1.5-.42,2.98-1.53,4.01-3.75,3.47-14.65,12.51-26.21,12.51Z"/><path class="cls-4" d="M177.56,352.72l-28.7-3.16c-3.14-.35-5.4-3.17-5.06-6.31,.03-.28,.08-.55,.15-.83l7.31-27.85c1.01-8.71,8.89-14.95,17.6-13.95,8.68,1.01,14.91,8.83,13.96,17.51l1.08,28.68c.12,3.16-2.34,5.81-5.5,5.93-.28,.01-.56,0-.84-.03h0Z"/><path class="cls-6" d="M243.93,440.27c4.45-3.92,4.89-10.71,.97-15.16-.42-.47-.88-.91-1.37-1.31l-7.07-92.84-20.79,4.68,12.2,90.41c-3.4,4.9-2.18,11.63,2.72,15.03,4.1,2.84,9.62,2.51,13.34-.81Z"/><path class="cls-4" d="M207.69,346.89c-1.22-1.13-1.88-2.74-1.82-4.4l1.08-28.68c-.96-8.72,5.33-16.56,14.05-17.52,8.68-.95,16.5,5.28,17.51,13.96l7.31,27.85c.8,3.05-1.03,6.18-4.08,6.98-.27,.07-.55,.12-.83,.15l-28.7,3.16c-1.65,.18-3.3-.36-4.52-1.5Z"/><path class="cls-1" d="M191.7,275.48c-.44,0-.87-.05-1.3-.15l-.12-.03c-21.59-3.3-26.37-15.81-27.41-21.04-1.08-5.41,.15-10.63,2.94-12.66-1.52-4.8-1.28-9.06,.73-12.66,3.5-6.28,11.08-8.4,12.1-8.66,6.06-4.47,13.31-1.49,14.63-.88,11.72-4.34,16.2-.73,17.01,.08,5.24,.94,8.43,2.96,9.49,6.02,1.99,5.73-4.31,12.86-4.57,13.16l-.14,.16-9.38,.45c-3.51,.17-6.22,3.15-6.05,6.65,.01,.22,.03,.44,.07,.66h0c.25,1.14,.57,2.26,.96,3.36,1.6,5.01,2.8,9.28,1.25,10.91-.72,.64-1.74,.82-2.63,.46-1.47-.39-2.46-.31-2.96,.24-.77,.86-.54,3.03,.66,6.13,.77,1.99,.36,4.24-1.05,5.85-1.05,1.24-2.6,1.96-4.23,1.97Z"/><path class="cls-3" d="M481.76,354h-121c-9.38-.01-16.99-7.62-17-17V155.17c.01-9.38,7.62-16.99,17-17h121c9.38,.01,16.99,7.62,17,17v181.83c-.01,9.38-7.62,16.99-17,17Zm-121-213.83c-8.28,0-14.99,6.72-15,15v181.83c0,8.28,6.72,14.99,15,15h121c8.28,0,14.99-6.72,15-15V155.17c0-8.28-6.72-14.99-15-15h-121Z"/><path class="cls-4" d="M463.26,225.58h-84c-4.69,0-8.49-3.81-8.5-8.5v-40c0-4.69,3.81-8.49,8.5-8.5h84c4.69,0,8.49,3.81,8.5,8.5v40c0,4.69-3.81,8.49-8.5,8.5Z"/><path class="cls-7" d="M457.26,263.08h-72c-4.42,0-8-3.58-8-8s3.58-8,8-8h72c4.42,0,8,3.58,8,8s-3.58,8-8,8Z"/><path class="cls-7" d="M457.26,293.08h-72c-4.42,0-8-3.58-8-8s3.58-8,8-8h72c4.42,0,8,3.58,8,8s-3.58,8-8,8Z"/><path class="cls-7" d="M457.26,323.08h-72c-4.42,0-8-3.58-8-8s3.58-8,8-8h72c4.42,0,8,3.58,8,8s-3.58,8-8,8Z"/><path class="cls-3" d="M776.76,456h-121c-9.38-.01-16.99-7.62-17-17v-181.83c.01-9.38,7.62-16.99,17-17h121c9.38,.01,16.99,7.62,17,17v181.83c-.01,9.38-7.62,16.99-17,17Zm-121-213.83c-8.28,0-14.99,6.72-15,15v181.83c0,8.28,6.72,14.99,15,15h121c8.28,0,14.99-6.72,15-15v-181.83c0-8.28-6.72-14.99-15-15h-121Z"/><path class="cls-7" d="M752.26,285.08h-72c-4.42,0-8-3.58-8-8s3.58-8,8-8h72c4.42,0,8,3.58,8,8s-3.58,8-8,8Z"/><path class="cls-7" d="M752.26,315.08h-72c-4.42,0-8-3.58-8-8s3.58-8,8-8h72c4.42,0,8,3.58,8,8s-3.58,8-8,8Z"/><path class="cls-5" d="M758.26,391.58h-84c-4.69,0-8.49-3.81-8.5-8.5v-40c0-4.69,3.81-8.49,8.5-8.5h84c4.69,0,8.49,3.81,8.5,8.5v40c0,4.69-3.81,8.49-8.5,8.5Z"/><path class="cls-7" d="M752.26,427.08h-72c-4.42,0-8-3.58-8-8s3.58-8,8-8h72c4.42,0,8,3.58,8,8s-3.58,8-8,8Z"/><path class="cls-3" d="M702.76,167h-121c-9.38-.01-16.99-7.62-17-17V37.17c.01-9.38,7.62-16.99,17-17h121c9.38,.01,16.99,7.62,17,17v112.83c-.01,9.38-7.62,16.99-17,17ZM581.76,22.17c-8.28,0-14.99,6.72-15,15v112.83c0,8.28,6.72,14.99,15,15h121c8.28,0,14.99-6.72,15-15V37.17c0-8.28-6.72-14.99-15-15h-121Z"/><path class="cls-7" d="M678.26,131.58h-72c-4.42,0-8-3.58-8-8s3.58-8,8-8h72c4.42,0,8,3.58,8,8s-3.58,8-8,8Z"/><path class="cls-7" d="M678.26,101.58h-72c-4.42,0-8-3.58-8-8s3.58-8,8-8h72c4.42,0,8,3.58,8,8s-3.58,8-8,8Z"/><path class="cls-7" d="M678.26,71.58h-72c-4.42,0-8-3.58-8-8s3.58-8,8-8h72c4.42,0,8,3.58,8,8s-3.58,8-8,8Z"/><circle class="cls-4" cx="488.76" cy="143" r="23"/><path class="cls-2" d="M486.48,151.77c-.52,0-1.02-.17-1.44-.48l-.03-.02-5.41-4.14c-1.05-.8-1.26-2.31-.45-3.37,.8-1.05,2.31-1.26,3.37-.45h0l3.5,2.69,8.27-10.79c.81-1.05,2.31-1.25,3.37-.44h0l-.05,.07,.05-.07c1.05,.81,1.25,2.31,.44,3.37l-9.73,12.69c-.46,.59-1.16,.94-1.91,.94Z"/><circle class="cls-3" cx="788.76" cy="246" r="23"/><path class="cls-2" d="M786.48,254.77c-.52,0-1.02-.17-1.44-.48l-.03-.02-5.41-4.14c-1.05-.8-1.26-2.31-.45-3.37,.8-1.05,2.31-1.26,3.37-.45h0l3.5,2.69,8.27-10.79c.81-1.05,2.31-1.25,3.37-.44h0l-.05,.07,.05-.07c1.05,.81,1.25,2.31,.44,3.37l-9.73,12.69c-.46,.59-1.16,.94-1.91,.94Z"/><circle class="cls-3" cx="715.76" cy="23" r="23"/><path class="cls-2" d="M713.48,31.77c-.52,0-1.02-.17-1.44-.48l-.03-.02-5.41-4.14c-1.06-.8-1.26-2.31-.46-3.37,.8-1.06,2.31-1.26,3.37-.46h.01l3.5,2.69,8.27-10.79c.81-1.05,2.31-1.25,3.37-.44h0l-.05,.07,.05-.07c1.05,.81,1.25,2.31,.44,3.37l-9.73,12.69c-.46,.59-1.16,.94-1.91,.94Z"/><path class="cls-3" d="M382,620H1c-.55,0-1-.45-1-1s.45-1,1-1H382c.55,0,1,.45,1,1s-.45,1-1,1Z"/><g><path d="M48.85,105.88h4.46v17.35c4.1-.07,8.49-.46,13.11-1.39l.46,3.73c-5.36,1.09-10.55,1.37-15.26,1.37h-2.78v-21.06Zm28.76,12.73h-4.54v16.14h-4.5v-31.92h4.5v12.13h4.54v3.66Z"/><path d="M105.03,120.69h-9.28v6.82h12.48v3.66h-29.29v-3.66h12.34v-6.82h-8.89v-15.61h22.39v3.59h-17.89v8.47h18.14v3.55Z"/><path d="M118.36,106.2h7.28v-3.41h4.46v3.41h7.24v3.55h-18.98v-3.55Zm9.49,4.68c4.64,0,7.88,2.48,7.88,6.19s-3.23,6.12-7.88,6.12-7.95-2.43-7.95-6.12,3.29-6.19,7.95-6.19Zm-4.85,14.03h4.46v5.77h17.44v3.59h-21.9v-9.35Zm4.85-5.13c2.16,0,3.62-.95,3.62-2.71s-1.46-2.76-3.62-2.78c-2.14,.02-3.57,1-3.55,2.78-.02,1.76,1.41,2.71,3.55,2.71Zm15.89-7.1h4.32v3.66h-4.32v10.41h-4.5v-23.87h4.5v9.81Z"/><path d="M176.43,126.45h-4.46v-11.53h-5.91v6.47h-15.22v-16.45h4.5v4.92h6.29v-4.92h4.43v6.4h5.91v-8.47h4.46v23.59Zm-21.3-2.36h4.54v6.57h17.44v3.59h-21.97v-10.16Zm6.5-6.22v-4.61h-6.29v4.61h6.29Z"/><path d="M206.02,109.93h5.36v-7.1h4.46v17.19h-4.46v-6.5h-5.34c-.83,3.52-4.11,5.91-8.23,5.91-4.92,0-8.54-3.2-8.51-7.66-.04-4.38,3.59-7.59,8.51-7.56,4.08-.04,7.33,2.3,8.21,5.73Zm-8.21,5.73c2.43,0,4.17-1.51,4.18-3.9-.02-2.39-1.76-3.85-4.18-3.83-2.51-.02-4.27,1.44-4.25,3.83-.02,2.39,1.74,3.9,4.25,3.9Zm-3.3,5.77h4.43v3.09h12.45v-3.09h4.46v13.04h-21.34v-13.04Zm16.88,9.42v-2.88h-12.45v2.88h12.45Z"/><path d="M249.24,124.31h-12.52v10.48h-4.43v-10.48h-12.34v-3.59h29.29v3.59Zm-25.84-19.93h22.32v12.9h-22.32v-12.9Zm17.86,9.39v-5.84h-13.43v5.84h13.43Z"/><path d="M280.36,120.51h-29.29v-3.34h29.29v3.34Zm-25.95,1.58h22.43v7.56h-17.93v1.83h18.88v3.06h-23.34v-7.73h17.96v-1.62h-18v-3.09Zm.25-18.7h22.15v7.52h-17.61v1.72h18.18v3.02h-22.64v-7.59h17.58v-1.62h-17.65v-3.06Z"/><path d="M53.63,154.6v-1.72h-5.24v-3.59h14.41v3.59h-4.85v1.72c-.02,5.31,1.65,10.69,6.33,13.36l-2.64,3.3c-2.87-1.69-4.73-4.54-5.82-7.98-1.09,3.73-3.02,6.89-5.96,8.68l-2.71-3.3c4.71-2.9,6.47-8.63,6.47-14.06Zm6.89,2.39h4.22v-10.44h4.22v29.99h-4.22v-15.93h-4.22v-3.62Zm14.98,21.02h-4.25v-31.99h4.25v31.99Z"/><path d="M87.95,148.1c4.9-.02,8.72,3.36,8.72,8.12s-3.81,8.12-8.72,8.12-8.81-3.43-8.79-8.12c-.02-4.76,3.87-8.14,8.79-8.12Zm0,12.34c2.46,0,4.34-1.62,4.36-4.22-.02-2.67-1.9-4.24-4.36-4.22-2.44-.02-4.39,1.55-4.36,4.22-.04,2.6,1.92,4.22,4.36,4.22Zm-4.36,6.43h4.46v7h17.44v3.59h-21.9v-10.58Zm20.74-11.67h4.32v3.73h-4.32v10.41h-4.5v-23.31h4.5v9.18Z"/><path d="M125.49,154.46h-15.47v-3.55h5.55v-4.01h4.43v4.01h5.48v3.55Zm-7.66,1.44c4.1,.02,7.01,3.15,7.03,7.59-.02,4.46-2.94,7.63-7.03,7.63s-7.07-3.16-7.07-7.63,2.99-7.58,7.07-7.59Zm0,11.43c1.79,0,3.08-1.39,3.09-3.83-.02-2.41-1.3-3.87-3.09-3.87s-3.13,1.46-3.13,3.87,1.27,3.83,3.13,3.83Zm8.86-20.67h4.18v12.38h2.6v-13.01h4.25v31.99h-4.25v-15.4h-2.6v14.03h-4.18v-29.99Z"/><path d="M149.33,148.73h12.83v-2.21h4.46v10.72h-8.72v2.07h12.45v3.52h-29.18v-3.52h12.3v-2.07h-8.58v-10.72h4.43v2.21Zm-4.78,15.79h22.25v8.09h-17.82v1.83h18.67v3.38h-23.06v-8.3h17.79v-1.72h-17.82v-3.27Zm17.61-10.62v-1.93h-12.83v1.93h12.83Z"/><path d="M177.56,152.95h-4.5v-3.66h8.79c-.04,8.79-.95,15.64-6.68,21.94l-3.52-2.5c4.36-4.73,5.62-9.4,5.91-15.79Zm8.91,0h-3.57v-3.66h7.8c-.02,9.12-.81,17.05-6.47,24.01l-3.55-2.5c4.34-5.34,5.54-10.83,5.78-17.86Zm11.44,5.62h4.25v3.69h-4.25v15.75h-4.5v-31.99h4.5v12.55Z"/><path d="M212.29,159.74c1.51-.98,2.69-2.07,2.67-3.69,.02-1.76-1.35-2.9-3.06-2.92-1.63,.02-3.16,1.11-3.23,3.16h-4.99c.09-4.94,3.76-7.31,8.26-7.31,4.9,0,8.37,2.55,8.37,6.89,0,2.9-1.49,4.73-3.8,6.12-1.99,1.18-2.87,2.32-2.88,4.78v.39h-4.64v-.39c.02-4.38,1.2-5.71,3.3-7.03Zm-.88,9.49c1.56-.02,2.92,1.3,2.92,2.92s-1.35,2.95-2.92,2.95c-1.65,0-2.99-1.32-2.95-2.95-.04-1.62,1.3-2.94,2.95-2.92Z"/></g></g></svg>